<svg width="766" height="265" viewBox="0 0 766 265" fill="none" xmlns="http://www.w3.org/2000/svg">
<path d="M385 17.0059C384.111 22.6641 381.215 26.4814 376.544 29.9497C369.621 34.6634 362.29 38.8241 354.916 42.8244C352.973 43.8047 352.973 43.8047 352.221 45.6369C359.622 45.0811 367.023 44.5253 374.649 43.9527C374.649 41.7296 374.649 39.5065 374.649 37.216C375.051 35.1391 375.686 33.3356 376.374 31.3214C378.082 30.9046 378.082 30.9046 379.824 30.4793C380.04 35.5288 380.067 40.0731 378.099 44.7948C372.506 48.6798 365.773 49.4856 359.122 50.6894C359.077 51.1779 359.033 51.6664 358.987 52.1696C358.428 55.9277 357.729 58.5044 354.647 60.9523C351.253 63.1207 347.596 64.6907 343.864 66.2154C343.034 66.5584 343.034 66.5584 342.187 66.9084C338.89 68.1676 336.617 68.7241 333.243 67.5312C332.674 66.9754 332.105 66.4196 331.518 65.847C331.518 64.7354 331.518 63.6239 331.518 62.4786C324.577 62.0659 319.511 62.5184 313.403 65.847C312.834 66.1249 312.265 66.4028 311.678 66.6891C311.107 68.3401 310.6 70.012 310.114 71.689C305.482 86.3181 297.372 100.497 288.387 113.004C287.609 114.116 287.609 114.116 286.814 115.251C285.348 117.325 283.854 119.377 282.349 121.425C281.6 122.465 281.6 122.465 280.836 123.527C268.829 139.995 254.948 155.741 239.134 168.842C237.305 170.43 235.631 172.122 233.935 173.845C229.383 178.341 224.334 182.104 219.202 185.937C217.738 187.044 216.296 188.171 214.86 189.311C206.528 195.9 197.705 201.734 188.8 207.557C186.905 208.801 185.021 210.058 183.142 211.324C148.926 234.262 108.292 253.253 67.5179 261.522C65.7246 261.896 63.9381 262.302 62.1578 262.731C54.979 264.405 48.1025 265.001 40.7584 264.955C38.9791 264.948 37.2022 264.973 35.4231 264.999C24.8193 265.054 14.7519 262.749 6.31333 256.159C1.04522 250.108 -0.13785 243.47 0.0122173 235.705C1.62632 216.514 16.375 199.477 29.6039 186.265C30.2331 185.634 30.8623 185.003 31.5106 184.352C33.581 182.281 35.6607 180.219 37.7448 178.16C38.4086 177.501 39.0724 176.842 39.7564 176.163C40.3902 175.543 41.024 174.924 41.6771 174.285C42.2391 173.733 42.8011 173.181 43.3802 172.612C45.277 170.982 47.2447 169.788 49.4439 168.582C48.9695 171.867 47.485 173.276 45.0567 175.519C44.3293 176.203 43.6019 176.887 42.8524 177.592C42.0742 178.318 41.2961 179.044 40.4943 179.792C28.6021 191.172 13.2503 207.086 12.9986 224.37C13.0675 230.37 13.627 234.508 17.9586 239.054C29.1093 247.122 42.2033 247.268 55.4822 246.054C60.7485 245.283 65.9355 244.136 71.1171 242.949C72.0605 242.734 72.0605 242.734 73.023 242.515C81.7287 240.507 90.1706 237.991 98.6128 235.107C99.7268 234.736 99.7268 234.736 100.863 234.359C111.35 230.836 121.324 226.36 131.284 221.633C131.879 221.351 132.474 221.069 133.086 220.779C144.261 215.464 155.393 210.004 165.95 203.581C166.601 203.188 167.251 202.796 167.921 202.392C169.838 201.232 171.75 200.066 173.66 198.897C174.197 198.57 174.734 198.243 175.288 197.907C197.005 184.749 197.005 184.749 216.113 168.381C218.013 166.551 220.048 164.951 222.128 163.319C236.714 151.793 251.027 138.737 262.25 124.023C264.131 121.56 266.096 119.202 268.116 116.846C277.48 105.729 285.733 93.7352 293.941 81.794C294.308 81.2621 294.675 80.7302 295.053 80.1822C296.739 77.7157 298.339 75.2847 299.601 72.5837C297.426 73.3168 295.251 74.0537 293.078 74.7942C292.414 75.0197 291.75 75.2452 291.065 75.4775C287.283 76.777 283.576 78.1701 279.892 79.7143C270.315 83.6903 261.07 84.4911 250.756 84.5834C250.009 84.5914 249.262 84.5994 248.493 84.6077C247.787 84.604 247.082 84.6004 246.355 84.5966C245.727 84.5947 245.1 84.5928 244.453 84.5908C242.349 84.3338 240.995 83.8173 239.219 82.6887C238.14 80.0572 238.14 80.0572 237.493 77.6362C236.187 77.7274 236.187 77.7274 234.855 77.8204C223.368 78.5607 211.909 78.567 200.401 78.4783C200.686 77.3667 200.97 76.2552 201.264 75.1099C203.783 74.4162 206.104 74.1277 208.717 74.031C209.493 74 210.268 73.969 211.067 73.9371C212.299 73.8924 212.299 73.8924 213.556 73.8468C215.261 73.7787 216.966 73.7096 218.671 73.6396C219.516 73.605 220.361 73.5704 221.231 73.5347C226.656 73.2945 232.075 72.9399 237.493 72.5837C237.135 71.4716 237.135 71.4716 236.769 70.337C236.456 69.359 236.144 68.3809 235.822 67.3733C235.512 66.4061 235.202 65.4389 234.882 64.4424C234.183 62.1051 233.619 59.8203 233.18 57.4261C231.899 57.7908 231.899 57.7908 230.592 58.1629C227.161 59.1219 223.707 59.9635 220.241 60.7945C219.956 59.9608 219.672 59.1271 219.379 58.2682C219.948 57.9903 220.517 57.7124 221.104 57.4261C220.259 57.4182 219.415 57.4104 218.545 57.4023C215.407 57.3686 212.269 57.3132 209.131 57.2514C207.774 57.2276 206.417 57.2097 205.06 57.1979C203.106 57.1798 201.154 57.1405 199.201 57.0972C198.597 57.0961 197.992 57.0951 197.369 57.094C194.478 57.0098 192.913 56.797 190.617 55.0228C188.822 52.7546 187.145 50.447 185.521 48.0579C184.912 47.1699 184.302 46.282 183.674 45.3671C182.286 43.1106 182.286 43.1106 182.286 41.4264C183.821 41.5259 183.821 41.5259 185.737 42.2685C186.791 43.9605 187.799 45.6797 188.779 47.4132C190.519 49.998 192.094 52.0177 195.253 52.817C200.334 53.2091 205.353 52.4336 210.375 51.742C211.918 51.5693 213.462 51.4015 215.006 51.2387C218.773 50.831 222.526 50.3575 226.279 49.8473C225.896 48.9746 225.512 48.1018 225.117 47.2026C224.623 46.0494 224.13 44.8959 223.638 43.7422C223.257 42.8808 223.257 42.8808 222.868 42.0021C221.562 38.9134 220.766 37.0156 221.966 33.8477C222.536 33.2919 223.105 32.7361 223.692 32.1635C227.619 32.5947 229.87 35.2291 232.587 37.7949C233.535 38.6765 234.484 39.557 235.435 40.4363C235.851 40.8279 236.267 41.2194 236.696 41.6228C237.244 42.1138 237.792 42.6048 238.356 43.1106C238.768 43.5313 239.18 43.9521 239.604 44.3855C243.034 47.6526 245.414 48.7383 250.208 48.7356C250.912 48.7095 251.617 48.6834 252.343 48.6566C253.081 48.6494 253.819 48.6423 254.58 48.6349C256.919 48.6068 259.255 48.5434 261.593 48.4789C263.186 48.4536 264.779 48.4305 266.372 48.4098C270.261 48.3544 274.148 48.2673 278.036 48.1631C276.328 50.6641 274.62 53.1651 272.86 55.7419C273.714 55.1861 274.568 54.6304 275.448 54.0578C276.729 53.667 276.729 53.667 278.036 53.2683C281.567 52.0475 282.675 50.6059 284.775 47.6368C286.662 45.6369 286.662 45.6369 289.25 44.7948C291.838 44.7948 291.838 44.7948 293.409 46.054C295.889 47.7262 297.359 47.547 300.343 47.3836C301.785 47.3143 301.786 47.3144 303.257 47.2438C304.257 47.1824 305.257 47.1211 306.287 47.0579C307.3 47.0063 308.313 46.9548 309.356 46.9017C311.856 46.7727 314.355 46.6313 316.854 46.479C316.854 47.3126 316.854 48.1463 316.854 49.0052C317.601 48.5189 318.348 48.0326 319.118 47.5316C319.595 47.2233 320.072 46.915 320.564 46.5974C321.876 45.7374 323.167 44.8469 324.455 43.9527C327.196 42.274 329.9 41.0421 332.866 39.8048C335.822 38.5328 338.686 37.0962 341.559 35.6568C343.595 34.6897 343.595 34.6897 345.953 33.8279C348.044 33.191 348.044 33.191 348.77 31.3214C351.379 29.975 354.045 28.7783 356.719 27.5616C359.322 26.396 359.322 26.396 360.847 23.7426C360.936 23.1695 361.025 22.5963 361.116 22.0058C361.709 20.3743 361.709 20.3743 363.516 19.4598C366.468 18.5534 369.134 18.3657 372.223 18.2164C376.715 17.9914 380.523 16.9109 385 17.0059Z" fill="#5797CA"/>
<path d="M290.583 121C293.552 122.448 294.188 125.88 295.384 128.765C295.684 129.475 295.984 130.185 296.293 130.916C297.272 133.239 298.243 135.565 299.214 137.891C299.888 139.491 300.562 141.09 301.236 142.69C302.564 145.839 303.888 148.989 305.21 152.14C307.297 157.113 309.397 162.08 311.513 167.041C312.004 168.193 312.004 168.193 312.505 169.368C315.525 176.42 318.653 183.427 321.779 190.435C326.799 201.692 331.678 213.004 336.52 224.335C337.916 227.602 339.317 230.867 340.718 234.132C341.927 236.95 343.135 239.769 344.343 242.588C344.931 243.961 345.52 245.334 346.109 246.707C346.928 248.616 347.746 250.525 348.562 252.435C348.81 253.011 349.057 253.586 349.313 254.18C351 258.134 351 258.134 351 259.072C341.316 259.072 331.632 259.072 321.655 259.072C319.519 254.071 319.519 254.071 317.339 248.969C316.033 246.051 314.718 243.138 313.395 240.227C311.88 236.49 310.755 232.612 309.571 228.763C293.337 228.763 277.102 228.763 260.375 228.763C261.346 222.133 261.346 222.133 262.644 218.611C262.887 217.942 263.13 217.273 263.381 216.584C263.688 215.758 263.996 214.933 264.313 214.083C265.292 211.426 266.271 208.769 267.28 206.032C277.248 206.032 287.217 206.032 297.488 206.032C293.592 194.931 289.249 184.051 284.721 173.181C283.752 170.849 282.795 168.512 281.841 166.173C281.303 164.866 280.765 163.56 280.226 162.253C279.986 161.659 279.746 161.065 279.498 160.453C278.397 157.417 278.397 157.417 275.911 155.518C275.802 156.125 275.692 156.732 275.58 157.358C275.056 159.69 274.334 161.746 273.433 163.963C272.914 165.245 272.914 165.245 272.386 166.553C272 167.496 271.615 168.438 271.218 169.409C270.809 170.417 270.4 171.425 269.979 172.463C265.271 184.055 260.505 195.625 255.75 207.199C252.025 216.268 248.326 225.347 244.677 234.446C242.145 240.758 239.597 247.063 236.964 253.336C236.719 253.922 236.474 254.509 236.221 255.113C234.588 258.968 234.588 258.968 233.619 259.913C231.569 259.988 229.543 260.011 227.493 259.996C226.575 259.994 226.575 259.994 225.639 259.992C223.678 259.987 221.717 259.977 219.756 259.966C218.429 259.962 217.102 259.958 215.776 259.955C212.517 259.945 209.258 259.931 206 259.913C206.582 256.544 207.618 253.538 208.879 250.353C209.082 249.84 209.285 249.326 209.493 248.798C210.159 247.117 210.83 245.438 211.502 243.76C211.734 243.178 211.965 242.597 212.204 241.998C215.661 233.319 219.289 224.724 223.057 216.168C227.914 205.084 232.372 193.844 236.859 182.614C237.214 181.729 237.569 180.844 237.934 179.933C238.218 179.161 238.502 178.39 238.794 177.595C240.084 174.81 242.403 173.435 244.893 171.724C253.338 165.891 253.338 165.891 259.512 158.044C260.082 158.044 260.651 158.044 261.238 158.044C261.459 157.55 261.681 157.056 261.909 156.547C263.061 154.505 264.298 153.266 266.039 151.677C273.401 144.65 279.335 136.534 285.228 128.335C286.999 125.88 288.792 123.441 290.583 121Z" fill="#263160"/>
<path d="M43 116.096C52.3534 116.096 61.7067 116.096 71.3436 116.096C73.9849 121.776 76.578 127.422 78.9864 133.192C79.2886 133.912 79.5908 134.633 79.9021 135.375C80.8808 137.711 81.8563 140.048 82.8313 142.385C83.1684 143.191 83.5055 143.998 83.8529 144.829C90.2264 160.082 96.4549 175.39 102.6 190.732C103.892 193.955 105.194 197.173 106.498 200.39C107.216 202.167 107.934 203.943 108.652 205.719C108.971 206.504 109.291 207.289 109.62 208.098C110.043 209.148 110.043 209.148 110.474 210.219C110.715 210.816 110.957 211.413 111.207 212.028C111.712 213.485 111.712 213.485 111.712 215.165C112.279 215.165 112.845 215.165 113.429 215.165C113.766 214.131 114.103 213.097 114.449 212.033C116.162 207.016 118.232 202.156 120.301 197.271C124.152 188.11 127.895 178.912 131.582 169.685C134.022 163.589 136.508 157.514 139.107 151.48C140.427 148.399 141.592 145.304 142.632 142.122C141.732 142.132 140.832 142.142 139.904 142.152C138.72 142.16 137.536 142.167 136.351 142.175C135.758 142.182 135.165 142.189 134.555 142.196C131.854 142.209 129.753 142.124 127.172 141.283C128.956 135.631 131.206 130.287 133.721 124.911C134.071 124.151 134.421 123.392 134.781 122.609C137.359 117.052 137.359 117.052 138.337 116.096C139.735 116.017 141.135 115.997 142.535 116C143.429 116 144.323 116 145.244 116.001C146.217 116.005 147.189 116.009 148.191 116.014C149.676 116.015 149.676 116.015 151.192 116.017C154.369 116.022 157.545 116.033 160.722 116.043C162.87 116.047 165.018 116.051 167.166 116.055C172.444 116.064 177.722 116.078 183 116.096C182.512 119.495 181.75 122.438 180.413 125.61C180.052 126.474 179.69 127.337 179.318 128.228C178.921 129.159 178.524 130.091 178.115 131.05C177.7 132.035 177.285 133.02 176.857 134.034C169.779 150.791 162.533 167.487 155.075 184.086C153.331 187.972 151.628 191.87 149.986 195.799C149.643 196.61 149.3 197.421 148.947 198.256C148.301 199.79 147.663 201.327 147.038 202.869C146.747 203.553 146.457 204.237 146.158 204.942C145.788 205.839 145.788 205.839 145.411 206.755C142.989 210.619 138.968 212.49 134.912 214.41C133.907 214.887 132.901 215.365 131.866 215.856C130.784 216.361 129.703 216.865 128.621 217.368C128.074 217.625 127.527 217.881 126.963 218.145C119.233 221.762 111.448 225.233 103.552 228.493C102.278 229.025 102.278 229.025 100.978 229.567C100.189 229.886 99.3996 230.204 98.5867 230.533C97.9041 230.81 97.2215 231.086 96.5183 231.372C94.3344 232.015 92.5075 232.062 90.2393 231.956C89.989 231.327 89.7388 230.699 89.481 230.051C84.7746 218.243 80.0176 206.469 74.9297 194.812C72.7735 189.865 70.6326 184.912 68.4985 179.955C68.2594 179.4 68.0203 178.845 67.774 178.273C63.9082 169.284 60.2115 160.241 56.5951 151.153C53.5725 143.571 50.384 136.069 47.1204 128.583C46.1635 126.385 45.2179 124.182 44.2883 121.973C44.0315 121.367 43.7746 120.76 43.51 120.136C43 118.614 43 118.614 43 116.096Z" fill="#63A5D3"/>
<path d="M385 17.0059C384.115 22.6933 381.228 26.5302 376.574 30.0163C369.675 34.7543 362.37 38.9364 355.022 42.9573C353.086 43.9427 353.086 43.9427 352.336 45.7842C359.711 45.2256 367.086 44.667 374.685 44.0914C374.685 41.8569 374.685 39.6223 374.685 37.32C375.086 35.2325 375.719 33.4197 376.404 31.3951C378.106 30.9761 378.106 30.9761 379.843 30.5487C380.057 35.6241 380.084 40.1918 378.123 44.9378C372.55 48.8428 365.841 49.6527 359.213 50.8628C359.168 51.3538 359.124 51.8448 359.078 52.3506C358.521 56.128 357.826 58.718 354.754 61.1785C351.372 63.358 347.728 64.9362 344.009 66.4687C343.458 66.6985 342.906 66.9284 342.338 67.1653C339.053 68.4309 336.788 68.9903 333.426 67.7912C332.858 67.2326 332.291 66.6739 331.706 66.0983C331.706 64.9811 331.706 63.8638 331.706 62.7127C324.721 62.2937 319.796 62.8113 313.655 66.0983C307.082 69.45 300.316 72.2538 293.474 75.0244C292.076 75.5936 290.68 76.1688 289.287 76.7503C276.792 81.9638 264.773 85.2582 251.068 84.9841C250.342 84.9868 249.617 84.9896 248.87 84.9924C242.733 84.9397 242.733 84.9397 239.732 83.0268C238.657 80.3817 238.657 80.3817 238.013 77.9482C236.711 78.0399 236.711 78.0399 235.384 78.1334C223.937 78.8775 212.519 78.8839 201.051 78.7947C201.335 77.6774 201.618 76.5601 201.911 75.409C204.421 74.7117 206.734 74.4217 209.338 74.3245C210.111 74.2933 210.883 74.2622 211.679 74.2301C212.907 74.1852 212.907 74.1852 214.16 74.1394C215.859 74.0709 217.558 74.0014 219.257 73.9311C220.098 73.8963 220.94 73.8615 221.808 73.8257C227.214 73.5842 232.613 73.2277 238.013 72.8697C237.775 72.1245 237.536 71.3793 237.291 70.6115C236.824 69.1369 236.824 69.1369 236.347 67.6325C236.038 66.6603 235.729 65.6882 235.411 64.6865C234.714 62.3373 234.152 60.0406 233.715 57.6341C232.864 57.8785 232.013 58.1229 231.136 58.3748C227.717 59.3386 224.275 60.1846 220.821 61.0198C220.538 60.1819 220.254 59.3439 219.962 58.4806C220.529 58.2012 221.096 57.9219 221.681 57.6341C220.84 57.6262 219.998 57.6183 219.132 57.6102C216.004 57.5764 212.877 57.5207 209.75 57.4585C208.398 57.4346 207.046 57.4167 205.694 57.4048C203.747 57.3866 201.802 57.3471 199.856 57.3035C199.253 57.3025 198.65 57.3014 198.029 57.3004C195.149 57.2157 193.59 57.0018 191.302 55.2185C189.513 52.9386 187.841 50.6191 186.223 48.2177C185.616 47.3252 185.009 46.4327 184.383 45.5131C183 43.245 183 43.245 183 41.5521C184.53 41.6522 184.53 41.6522 186.438 42.3986C187.488 44.0992 188.493 45.8273 189.47 47.5697C191.204 50.1678 192.773 52.1979 195.921 53.0013C200.984 53.3954 205.985 52.6159 210.99 51.9208C212.528 51.7472 214.066 51.5786 215.605 51.4149C219.359 51.0051 223.098 50.5292 226.838 50.0164C226.456 49.1391 226.074 48.2619 225.68 47.3581C225.188 46.1988 224.697 45.0394 224.206 43.8798C223.953 43.3026 223.699 42.7254 223.439 42.1307C222.138 39.0262 221.345 37.1186 222.54 33.9344C223.108 33.3757 223.675 32.8171 224.26 32.2415C228.173 32.6749 230.417 35.3229 233.124 37.9019C234.069 38.788 235.014 39.673 235.961 40.5569C236.376 40.9505 236.791 41.344 237.218 41.7495C238.037 42.4898 238.037 42.4898 238.872 43.245C239.283 43.6679 239.693 44.0907 240.116 44.5264C243.534 47.8103 245.905 48.9016 250.682 48.8989C251.384 48.8727 252.087 48.8465 252.81 48.8195C253.546 48.8123 254.281 48.8051 255.039 48.7977C257.37 48.7694 259.697 48.7058 262.027 48.6409C263.615 48.6154 265.202 48.5923 266.79 48.5715C270.665 48.5157 274.539 48.4282 278.413 48.3235C276.711 50.8374 275.009 53.3512 273.255 55.9413C274.106 55.3827 274.957 54.824 275.834 54.2485C276.685 53.9866 277.536 53.7247 278.413 53.4549C281.931 52.2279 283.036 50.7789 285.128 47.7945C287.009 45.7842 287.009 45.7842 289.587 44.9378C292.166 44.9378 292.166 44.9378 293.731 46.2035C296.203 47.8844 297.667 47.7042 300.641 47.5399C302.079 47.4704 302.079 47.4704 303.545 47.3994C304.541 47.3377 305.538 47.2761 306.564 47.2126C307.573 47.1608 308.583 47.1089 309.623 47.0555C312.114 46.9259 314.604 46.7838 317.094 46.6307C317.094 47.4686 317.094 48.3066 317.094 49.1699C317.838 48.6811 318.583 48.1923 319.35 47.6887C319.825 47.3788 320.301 47.069 320.79 46.7497C322.098 45.8853 323.385 44.9902 324.669 44.0914C327.4 42.4041 330.094 41.1658 333.049 39.9221C335.996 38.6437 338.849 37.1997 341.712 35.7528C343.74 34.7808 343.74 34.7808 346.091 33.9145C348.174 33.2744 348.174 33.2744 348.898 31.3951C351.497 30.0417 354.154 28.8389 356.819 27.616C359.412 26.4443 359.412 26.4443 360.932 23.7773C361.065 22.9132 361.065 22.9132 361.201 22.0316C361.791 20.3916 361.791 20.3916 363.591 19.4725C366.533 18.5614 369.19 18.3728 372.268 18.2227C376.745 17.9965 380.539 16.9104 385 17.0059Z" fill="#30567D"/>
<path d="M552.99 146.603C561.068 151.626 565.944 157.474 569.322 166.17C571.198 175.721 569.126 184.118 563.777 192.308C558.98 198.574 552.044 203.459 544.073 204.741C533.036 205.649 523.623 204.399 514.85 197.232C507.565 189.883 504.935 182.406 505.001 172.466C505.214 163.786 507.965 157.958 514.167 151.695C525.009 142.525 539.975 140.243 552.99 146.603Z" fill="#212C60"/>
<path d="M584 144.378C592.788 144.275 592.788 144.275 601.753 144.169C603.585 144.139 605.416 144.109 607.304 144.077C608.782 144.067 610.261 144.059 611.739 144.052C612.485 144.035 613.231 144.018 614 144C620.772 143.996 626.985 145.658 632.156 150.127C634.977 153.822 634.921 157.848 634.751 162.326C633.843 166.994 631.417 170.166 628.223 173.643C628.738 173.749 629.254 173.856 629.784 173.966C632.853 174.821 635.126 176.667 636.837 179.303C638.659 183.889 638.15 189.483 636.621 194.075C633.395 198.41 629.417 201.557 623.972 202.523C619.982 203.054 616.008 203.011 611.988 202.988C611.275 202.987 610.562 202.987 609.828 202.986C607.189 202.981 604.551 202.97 601.912 202.959C596.001 202.942 590.09 202.924 584 202.907C584 183.592 584 164.278 584 144.378Z" fill="#232D5F"/>
<path d="M191.923 116C210.429 116 228.934 116 248 116C247.394 118.894 246.821 121.2 245.758 123.898C245.359 124.92 245.359 124.92 244.952 125.963C244.675 126.664 244.398 127.365 244.112 128.087C243.565 129.481 243.018 130.875 242.472 132.27C242.23 132.883 241.988 133.497 241.738 134.129C240.857 136.442 240.053 138.781 239.238 141.116C228.25 141.116 217.263 141.116 205.942 141.116C206.288 150.498 206.288 150.498 206.732 159.875C207.027 169.117 207.027 169.117 204.211 172.496C201.942 174.016 199.684 175.15 197.18 176.279C195.897 177.088 194.63 177.92 193.381 178.778C191.597 179.946 189.811 181.113 188.025 182.28C187.443 182.661 186.862 183.042 186.262 183.435C185.719 183.79 185.176 184.146 184.617 184.512C183.42 185.315 182.255 186.161 181.101 187.019C179.656 188 179.656 188 177.904 188C176.095 144.354 176.095 144.354 186.666 126.884C188.401 123.292 190.136 119.7 191.923 116Z" fill="#67B3DB"/>
<path d="M671.053 144C675.351 144 679.65 144 684.079 144C688.211 151.722 691.951 159.552 695.585 167.495C696.157 168.74 696.729 169.985 697.301 171.229C698.439 173.708 699.575 176.187 700.71 178.667C702.165 181.847 703.629 185.023 705.094 188.199C705.887 189.924 706.68 191.65 707.472 193.376C707.836 194.162 708.199 194.949 708.574 195.759C708.899 196.47 709.223 197.181 709.558 197.914C709.98 198.831 709.98 198.831 710.41 199.767C711 201.259 711 201.259 711 202.919C706.415 202.919 701.829 202.919 697.105 202.919C691.895 192.442 691.895 192.442 691.895 189.641C678.139 190.052 678.139 190.052 664.105 190.471C661.526 196.222 661.526 196.222 658.895 202.089C658.026 202.919 658.026 202.919 655.092 203C653.881 202.994 652.67 202.985 651.459 202.971C650.841 202.967 650.224 202.963 649.588 202.959C648.059 202.95 646.529 202.935 645 202.919C647.037 196.727 649.576 190.824 652.273 184.87C652.723 183.871 653.173 182.873 653.636 181.844C657.56 173.155 661.6 164.516 665.677 155.893C666.353 154.462 666.353 154.462 667.043 153.002C667.44 152.163 667.838 151.325 668.248 150.461C669.233 148.328 670.146 146.165 671.053 144Z" fill="#222D5D"/>
<path d="M378.201 6.2784C378.63 7.11271 378.63 7.11271 379.068 7.96388C379.892 8.34627 380.715 8.72866 381.563 9.12264C384.308 10.5089 385.479 11.222 386.878 13.8631C387.041 16.602 387.041 16.602 386.878 18.9195C386.592 18.3633 386.305 17.8071 386.01 17.234C384.668 17.6251 384.668 17.6251 383.299 18.0241C378.832 19.1259 374.345 19.3141 369.757 19.5548C367.288 19.7353 364.992 20.0715 362.582 20.605C362.671 21.2307 362.761 21.8564 362.853 22.5011C362.582 24.8187 362.582 24.8187 360.792 26.5568C352.981 31.5606 352.981 31.5606 349.566 31.5606C349.28 32.3949 348.993 33.2292 348.698 34.0888C347.268 34.7408 345.83 35.3807 344.36 35.9422C342.108 36.8176 339.963 37.8786 337.804 38.9477C336.108 39.7792 334.402 40.5914 332.693 41.3969C332.159 41.6503 331.625 41.9037 331.074 42.1648C329.508 42.9079 327.94 43.647 326.371 44.386C323.701 45.7988 321.549 47.4069 319.196 49.2581C318.623 49.2581 318.05 49.2581 317.46 49.2581C317.46 48.4238 317.46 47.5895 317.46 46.7299C316.783 46.8559 316.107 46.9819 315.409 47.1117C311.416 47.695 307.444 47.9723 303.414 48.2047C302.24 48.291 302.24 48.291 301.043 48.3791C300.292 48.4215 299.541 48.4639 298.767 48.5075C297.746 48.5723 297.746 48.5723 296.705 48.6384C294.41 48.3549 293.838 47.4914 292.296 45.8871C289.713 45.6246 289.713 45.6246 287.09 46.7299C285.794 48.144 284.783 49.5865 283.772 51.2036C281.214 54.7762 277.277 55.0925 273.206 56C274.318 52.9278 275.086 51.6458 277.545 49.2581C274.395 48.98 271.245 48.7019 268 48.4154C268 48.1372 268 47.8591 268 47.5726C268.946 47.5694 268.946 47.5694 269.912 47.566C281.897 47.1183 290.424 40.7602 300.196 34.6464C363.238 -4.70108 363.238 -4.70108 378.201 6.2784Z" fill="#D3DAE0"/>
<path d="M433.526 148.979C435.752 150.659 435.752 150.659 437 152.339C436.658 155.195 435.432 156.751 433.472 158.849C432.996 159.364 432.52 159.879 432.03 160.41C431.664 160.796 431.298 161.181 430.921 161.578C428.768 160.58 426.966 159.568 425.004 158.219C419.938 155.144 414.26 153.826 408.34 154.859C402.826 156.949 398.551 159.961 395.992 165.204C394.114 171.442 394.346 177.93 397.05 183.889C399.676 188.289 403.292 190.786 408.259 192.331C410.468 192.726 412.554 192.767 414.8 192.761C416.007 192.765 416.007 192.765 417.239 192.768C419.976 192.698 419.976 192.698 423.973 191.816C423.973 185.718 423.973 179.62 423.973 173.338C428.272 173.338 432.571 173.338 437 173.338C437 181.376 437 189.414 437 197.696C425.44 203.286 414.702 207.301 401.813 203.52C399.168 202.316 396.844 200.988 394.445 199.376C393.733 198.908 393.021 198.44 392.287 197.958C386.131 193.323 381.535 186.612 380.239 179.104C379.29 169.671 381.107 162.004 386.737 154.229C398.414 140.6 418.668 140.04 433.526 148.979Z" fill="#242F62"/>
<path d="M224.256 33C228.169 33.4295 230.413 36.0537 233.12 38.6096C234.064 39.4877 235.01 40.3648 235.957 41.2407C236.579 41.8257 236.579 41.8257 237.214 42.4226C237.759 42.9116 238.305 43.4007 238.868 43.9046C239.278 44.3237 239.688 44.7428 240.111 45.1746C243.529 48.429 245.9 49.5105 250.677 49.5077C251.379 49.4818 252.081 49.4558 252.804 49.429C253.54 49.4219 254.276 49.4148 255.033 49.4075C257.364 49.3795 259.691 49.3163 262.021 49.2521C263.608 49.2268 265.196 49.2039 266.783 49.1833C270.658 49.128 274.531 49.0413 278.405 48.9375C276.703 51.4288 275.001 53.9201 273.248 56.4869C274.099 55.9333 274.95 55.3797 275.826 54.8093C277.076 54.42 277.076 54.42 278.351 54.0229C280.848 53.1776 282.423 52.2652 284.421 50.6152C285.366 55.4739 285.605 58.0606 282.702 62.3586C280.93 64.3508 280.93 64.3508 279.264 65.7139C278.697 65.7139 278.13 65.7139 277.545 65.7139C277.545 66.2675 277.545 66.8211 277.545 67.3915C280.665 67.1147 283.785 66.8379 287 66.5527C284.468 69.0233 282.809 69.7314 279.513 70.8484C277.414 71.635 275.501 72.599 273.517 73.6302C268.481 76.156 263.202 77.6201 257.777 79.135C256.5 79.5502 256.5 79.5502 255.198 79.9738C253.193 80.0087 251.187 80.0087 249.182 79.9738C248.331 79.9738 247.48 79.9738 246.603 79.9738C245.752 79.9738 244.901 79.9738 244.025 79.9738C243.917 75.1506 243.917 75.1506 244.884 73.2632C244.41 73.4006 243.936 73.5379 243.447 73.6794C241.218 74.1504 239.213 74.1838 236.934 74.1545C236.167 74.1469 235.4 74.1394 234.611 74.1316C234.03 74.1218 233.449 74.1121 232.851 74.1021C232.851 73.8253 232.851 73.5484 232.851 73.2632C234.553 73.2632 236.255 73.2632 238.008 73.2632C237.77 72.5247 237.532 71.7862 237.286 71.0253C236.819 69.5639 236.819 69.5639 236.343 68.0731C236.034 67.1096 235.725 66.1462 235.406 65.1536C234.71 62.8254 234.148 60.5494 233.711 58.1645C232.86 58.4067 232.009 58.6489 231.132 58.8985C227.714 59.8537 224.271 60.6921 220.818 61.5198C220.535 60.6894 220.251 59.8589 219.959 59.0033C220.526 58.7265 221.093 58.4497 221.678 58.1645C220.836 58.1567 219.995 58.1489 219.129 58.1408C216.001 58.1073 212.875 58.0521 209.748 57.9905C208.396 57.9668 207.044 57.949 205.692 57.9372C203.745 57.9192 201.8 57.8801 199.854 57.8369C199.252 57.8358 198.649 57.8348 198.028 57.8337C195.148 57.7498 193.589 57.5379 191.301 55.7705C189.512 53.5111 187.841 51.2125 186.223 48.8327C185.616 47.9482 185.009 47.0637 184.383 46.1524C183 43.9046 183 43.9046 183 42.227C184.53 42.3261 184.53 42.3261 186.438 43.0658C187.488 44.7512 188.493 46.4638 189.47 48.1905C191.204 50.7653 192.772 52.7771 195.92 53.5734C200.982 53.9639 205.983 53.1914 210.988 52.5025C212.525 52.3305 214.064 52.1633 215.602 52.0012C219.356 51.595 223.095 51.1234 226.835 50.6152C226.452 49.7458 226.07 48.8765 225.676 47.9808C225.185 46.832 224.693 45.6829 224.202 44.5337C223.949 43.9617 223.696 43.3897 223.435 42.8004C222.134 39.7237 221.341 37.8333 222.537 34.6776C223.104 34.124 223.672 33.5704 224.256 33Z" fill="#5BA0C6"/>
<path d="M721 144C725.569 144 730.138 144 734.846 144C734.846 159.854 734.846 175.708 734.846 192.043C745.127 192.043 755.408 192.043 766 192.043C766 195.659 766 199.275 766 203C751.15 203 736.3 203 721 203C721 183.53 721 164.06 721 144Z" fill="#212D59"/>
<path d="M453 144C457.468 144 461.935 144 466.538 144C466.538 159.854 466.538 175.708 466.538 192.043C476.591 192.043 486.643 192.043 497 192.043C497 195.659 497 199.275 497 203C482.48 203 467.96 203 453 203C453 183.53 453 164.06 453 144Z" fill="#252F5E"/>
<path d="M545.17 155.496C550.299 158.497 553.886 162.432 555.563 168.115C556.263 174.103 556.504 180.123 553.271 185.425C550.074 189.388 545.913 193.132 540.721 193.988C534.736 194.151 530.39 192.693 525.408 189.412C520.706 184.882 519.216 180.084 519 173.758C519.151 168.107 520.128 163.347 524.082 159.093C530.039 153.935 537.659 152.617 545.17 155.496Z" fill="#FBFBFC"/>
<path d="M204.821 205C205.097 209.74 205.33 214.48 205.524 219.224C205.595 220.833 205.679 222.442 205.774 224.05C206.389 234.601 206.165 241.007 199.63 249.719C198.068 252.77 196.698 255.87 195.304 259C189.594 259 183.883 259 178 259C178 246.47 178 233.941 178 221.031C181.997 218.804 185.994 216.576 190.113 214.281C196.394 210.322 196.394 210.322 202.462 206.071C203.956 205 203.956 205 204.821 205Z" fill="#1A285A"/>
<path d="M385 17.0059C384.544 20.2265 383.714 22.1152 381.563 24.5919C380.712 24.3833 379.862 24.1746 378.985 23.9597C375.503 23.4737 373.542 24.4685 370.547 26.1262C368.487 27.2199 366.404 28.0378 364.217 28.859C361.194 30.0133 358.555 31.3602 355.785 33.0207C354.97 33.2641 354.155 33.5075 353.315 33.7583C350.586 34.7219 348.691 36.0598 346.397 37.7685C343.491 39.6475 340.306 40.8829 337.103 42.197C335.037 42.958 335.037 42.958 334.304 44.8211C333.737 44.8211 333.169 44.8211 332.585 44.8211C332.302 45.6556 332.018 46.49 331.726 47.3498C329.537 48.4297 329.537 48.4297 326.785 49.457C323.329 50.7597 320.263 52.1786 317.118 54.0929C305.733 59.1502 305.733 59.1502 302.511 59.1502C302.511 59.7065 302.511 60.2628 302.511 60.836C298.527 62.5822 294.623 63.9692 290.411 65.0998C288.288 66.1217 288.077 67.2344 287.044 69.2648C285.427 70.0287 285.427 70.0287 283.5 70.5291C280.042 71.5123 277.115 72.8329 274.004 74.5987C272.029 75.3123 270.957 74.9831 269 74.3221C270.914 73.3718 272.83 72.4239 274.746 71.4774C275.284 71.2101 275.822 70.9428 276.376 70.6674C279.314 69.2187 282.25 67.8785 285.326 66.7362C282.774 66.7362 280.222 66.7362 277.593 66.7362C277.593 65.0504 277.593 65.0504 279.204 63.2593C281.03 61.6788 281.03 61.6788 282.748 61.6788C284.167 58.3736 284.502 55.8266 284.306 52.3017C284.223 48.4858 284.223 48.4858 286.346 45.9274C288.763 44.8211 288.763 44.8211 291.018 44.9265C293.059 45.664 293.059 45.664 295.637 47.3498C297.972 47.5051 297.972 47.5051 300.588 47.33C301.549 47.2866 302.51 47.2431 303.5 47.1983C304.503 47.144 305.505 47.0897 306.539 47.0337C308.058 46.962 308.058 46.962 309.608 46.8888C312.112 46.7695 314.615 46.6419 317.118 46.5069C317.118 47.3414 317.118 48.1758 317.118 49.0356C317.863 48.5488 318.607 48.062 319.374 47.5605C319.849 47.2519 320.324 46.9434 320.814 46.6254C322.121 45.7646 323.408 44.8733 324.691 43.9782C327.421 42.298 330.114 41.0649 333.068 39.8264C336.013 38.5532 338.866 37.1153 341.728 35.6745C343.756 34.7065 343.756 34.7065 346.105 33.8439C348.188 33.2064 348.188 33.2064 348.911 31.335C351.51 29.9873 354.165 28.7895 356.829 27.5716C359.422 26.4049 359.422 26.4049 360.941 23.749C361.029 23.1753 361.118 22.6016 361.209 22.0105C361.8 20.3774 361.8 20.3774 363.599 19.4621C366.54 18.5549 369.196 18.367 372.272 18.2176C376.748 17.9923 380.54 16.9108 385 17.0059Z" fill="#3A6F9A"/>
<path d="M224.514 33C228.451 33.4243 230.709 36.0164 233.432 38.5411C234.383 39.4085 235.335 40.2748 236.287 41.1401C236.913 41.7179 236.913 41.7179 237.552 42.3075C238.101 42.7906 238.65 43.2737 239.216 43.7714C239.629 44.1854 240.042 44.5994 240.467 45.0259C243.907 48.2405 246.292 49.3088 251.099 49.3061C251.805 49.2804 252.512 49.2548 253.24 49.2283C253.98 49.2213 254.72 49.2143 255.483 49.207C257.827 49.1794 260.17 49.117 262.514 49.0536C264.111 49.0286 265.708 49.0059 267.306 48.9856C271.205 48.931 275.102 48.8454 279 48.7429C278.545 49.324 278.545 49.324 278.081 49.9169C277.686 50.431 277.292 50.945 276.885 51.4746C276.493 51.9816 276.1 52.4887 275.696 53.0111C274.497 54.6423 274.497 54.6423 273.919 57.2357C272.804 59.847 272.395 60.0083 269.811 61.0679C268.848 61.3755 267.884 61.6831 266.892 62C266.027 59.5143 266.027 59.5143 266.892 57.0286C258.727 57.0017 250.569 57.0388 242.405 57.2357C241.37 57.2475 240.335 57.2592 239.269 57.2713C233.628 57.42 229.298 57.9021 224.324 60.5492C222.784 61.1714 222.784 61.1714 220.189 60.3429C220.189 59.796 220.189 59.2491 220.189 58.6857C220.76 58.4123 221.331 58.1389 221.919 57.8571C221.072 57.8494 220.226 57.8417 219.354 57.8337C216.207 57.8006 213.061 57.7461 209.915 57.6852C208.555 57.6618 207.194 57.6443 205.833 57.6326C203.875 57.6148 201.918 57.5762 199.959 57.5335C199.353 57.5325 198.747 57.5314 198.122 57.5304C195.224 57.4475 193.655 57.2382 191.353 55.4924C189.553 53.2606 187.871 50.99 186.243 48.6393C185.632 47.7656 185.021 46.8919 184.392 45.9917C183 43.7714 183 43.7714 183 42.1143C184.539 42.2122 184.539 42.2122 186.459 42.9429C187.516 44.6076 188.527 46.2993 189.51 48.0049C191.255 50.5483 192.833 52.5355 196 53.322C201.094 53.7078 206.127 52.9448 211.162 52.2643C212.709 52.0944 214.257 51.9293 215.806 51.7691C219.582 51.3679 223.345 50.902 227.108 50.4C226.723 49.5413 226.339 48.6825 225.943 47.7978C225.448 46.663 224.953 45.528 224.459 44.3929C224.205 43.8278 223.95 43.2628 223.688 42.6807C222.379 39.6416 221.581 37.7743 222.784 34.6571C223.355 34.1103 223.925 33.5634 224.514 33Z" fill="#406D9A"/>
<path d="M375.584 5.06901C377.376 6.65855 377.376 6.65855 379.059 8.46003C379.937 8.87966 380.815 9.2993 381.719 9.73166C384.391 11.0628 385.516 11.8113 386.878 14.3943C387.041 17.1495 387.041 17.1495 386.878 19.4808C386.448 18.6416 386.448 18.6416 386.009 17.7853C384.665 18.1787 384.665 18.1787 383.294 18.5801C378.822 19.6885 374.329 19.8778 369.736 20.12C367.264 20.3015 364.965 20.6398 362.552 21.1763C362.642 21.8058 362.731 22.4353 362.823 23.0838C362.552 25.4151 362.552 25.4151 360.76 27.1636C352.939 32.1972 352.939 32.1972 349.52 32.1972C349.234 33.0364 348.947 33.8757 348.652 34.7404C347.22 35.3963 345.78 36.0401 344.308 36.6048C342.054 37.4854 339.906 38.5528 337.744 39.6283C336.046 40.4647 334.338 41.2817 332.627 42.092C332.092 42.3469 331.557 42.6018 331.006 42.8645C329.438 43.612 327.868 44.3555 326.297 45.0989C323.624 46.5201 321.469 48.1378 319.113 50C318.54 50 317.966 50 317.376 50C317.376 49.1607 317.376 48.3214 317.376 47.4567C316.284 47.6649 316.284 47.6649 315.17 47.8773C311.985 48.3298 308.972 48.3871 305.756 48.3575C304.133 48.346 304.133 48.346 302.477 48.3343C301.251 48.3195 301.251 48.3195 300 48.3045C300 48.0247 300 47.745 300 47.4567C303.87 47.0371 303.87 47.0371 307.819 46.609C307.819 46.0495 307.819 45.4899 307.819 44.9135C311.161 43.4249 314.378 42.2114 317.925 41.2774C322.703 39.8991 326.912 37.8532 331.276 35.5352C332.01 35.1565 332.743 34.7779 333.499 34.3877C337.431 32.3815 337.431 32.3815 340.833 29.6539C346.142 27.2346 351.763 25.4546 357.339 23.7196C357.339 23.1601 357.339 22.6006 357.339 22.0241C358.585 21.4531 359.835 20.8893 361.086 20.3286C362.129 19.8565 362.129 19.8565 363.193 19.3749C365.158 18.6331 365.158 18.6331 367.765 18.6331C367.765 18.0736 367.765 17.514 367.765 16.9376C368.338 16.9376 368.911 16.9376 369.502 16.9376C369.072 16.0983 369.072 16.0983 368.633 15.2421C366.438 14.6863 366.438 14.6863 364.29 14.3943C364.29 13.555 364.29 12.7158 364.29 11.851C365.436 12.1308 366.583 12.4106 367.765 12.6988C367.335 11.4399 367.335 11.4399 366.896 10.1555C364.889 10.4353 362.882 10.7151 360.814 11.0033C360.814 9.88425 360.814 8.76522 360.814 7.61227C370.11 3.35983 370.11 3.35983 375.584 5.06901Z" fill="#5C9EC1"/>
<path d="M684 225C699.659 225 699.659 225 705.661 228.977C707.653 231.8 708.212 234.333 707.932 237.727C706.397 240.844 704.978 242.414 702.06 244.409C698.05 245.689 694.391 245.577 690.205 245.364C690.205 247.884 690.205 250.404 690.205 253C688.157 253 686.11 253 684 253C684 243.76 684 234.52 684 225Z" fill="#7DB9F1"/>
<path d="M598 178.331C601.414 178.238 604.826 178.17 608.241 178.116C609.206 178.087 610.171 178.059 611.165 178.029C620.295 177.921 620.295 177.921 624.184 181.773C625.212 185.161 625.385 186.938 624.026 190.216C622.385 192.234 621.485 192.881 619.116 193.819C616.794 194.014 616.794 194.014 614.167 193.987C613.225 193.982 612.283 193.976 611.313 193.97C610.334 193.956 609.355 193.942 608.347 193.927C607.355 193.919 606.363 193.911 605.341 193.903C602.894 193.883 600.447 193.852 598 193.819C598 188.708 598 183.597 598 178.331Z" fill="#F7F8F8"/>
<path d="M367.732 56C372.021 59.7005 374.227 63.1517 375 68.7083C372.551 89.0134 352.364 108.672 336.723 121C336.154 120.725 335.586 120.45 335 120.167C335.407 119.792 335.815 119.417 336.235 119.031C347.716 108.227 362.1 92.7176 363.614 76.4785C363.653 73.6403 363.48 71.2149 362.779 68.4479C362.458 64.7956 364.174 62.4331 366.009 59.3333C366.59 58.2253 367.166 57.115 367.732 56Z" fill="#64A8D8"/>
<path d="M338.133 19C338.562 20.26 338.562 20.26 339 21.5455C338.339 21.913 337.677 22.2805 336.996 22.6591C335.03 23.8676 333.609 24.9671 332.067 26.6364C332.789 28.4747 332.789 28.4747 334.667 29.1818C335.525 29.4618 336.383 29.7418 337.267 30.0303C337.839 30.5903 338.411 31.1503 339 31.7273C329.975 36.6365 321.362 41.2141 311.267 43.6061C310.259 43.8538 310.259 43.8538 309.232 44.1065C308.759 44.2214 308.287 44.3362 307.8 44.4545C307.8 45.0145 307.8 45.5745 307.8 46.1515C304.797 46.5715 304.797 46.5715 301.733 47C302.019 46.16 302.305 45.32 302.6 44.4545C301.742 44.4545 300.884 44.4545 300 44.4545C300 43.0545 300 41.6545 300 40.2121C301.144 39.6521 302.288 39.0921 303.467 38.5152C303.467 39.6352 303.467 40.7552 303.467 41.9091C304.039 41.9091 304.611 41.9091 305.2 41.9091C305.146 41.1041 305.093 40.2991 305.037 39.4697C305.091 38.5947 305.145 37.7197 305.2 36.8182C306.058 36.2582 306.916 35.6982 307.8 35.1212C308.086 35.6812 308.372 36.2412 308.667 36.8182C309.06 36.1182 309.453 35.4182 309.858 34.697C310.323 33.997 310.788 33.297 311.267 32.5758C311.839 32.5758 312.411 32.5758 313 32.5758C313 33.6958 313 34.8158 313 35.9697C313.572 35.9697 314.144 35.9697 314.733 35.9697C315.019 34.0097 315.305 32.0497 315.6 30.0303C316.172 30.0303 316.744 30.0303 317.333 30.0303C317.333 30.8703 317.333 31.7103 317.333 32.5758C317.905 32.5758 318.477 32.5758 319.067 32.5758C319.353 31.1758 319.639 29.7758 319.933 28.3333C321.077 28.3333 322.221 28.3333 323.4 28.3333C323.972 27.2133 324.544 26.0933 325.133 24.9394C325.991 25.2194 326.849 25.4994 327.733 25.7879C328.305 24.6679 328.877 23.5479 329.467 22.3939C330.039 22.3939 330.611 22.3939 331.2 22.3939C331.2 22.9539 331.2 23.5139 331.2 24.0909C332.022 23.4084 332.844 22.7259 333.692 22.0227C335.169 20.7967 336.395 19.8507 338.133 19Z" fill="#B4C4D0"/>
<path d="M598 154.29C601.146 154.208 604.29 154.148 607.437 154.1C608.771 154.062 608.771 154.062 610.133 154.023C616.764 153.948 616.764 153.948 620.203 155.722C622.36 157.826 622.693 158.548 623 161.391C622.724 164.137 622.724 164.137 621.124 165.936C618.157 167.827 615.812 168.017 612.228 167.999C611.4 167.996 610.572 167.994 609.719 167.991C608.856 167.985 607.994 167.979 607.106 167.972C606.233 167.969 605.361 167.965 604.462 167.962C602.308 167.953 600.154 167.939 598 167.925C598 163.425 598 158.926 598 154.29Z" fill="#F9FAFA"/>
<path d="M346.571 47C347.233 49.2061 347.421 50.8792 347.375 53.215C347.207 55.9701 347.207 55.9701 349.143 58.44C350.826 58.9482 350.826 58.9482 352.679 59.045C353.775 59.1357 354.871 59.2265 356 59.32C353.256 62.5511 350.51 63.9996 346.679 65.645C345.655 66.0931 344.632 66.5412 343.578 67.0028C340.804 68.0337 338.362 68.7215 335.429 69C333.393 67.955 333.393 67.955 332 66.36C332 65.1984 332 64.0368 332 62.84C328.04 62.84 324.08 62.84 320 62.84C320 61.9688 320 61.0976 320 60.2C321.106 59.7564 322.213 59.3173 323.321 58.88C323.938 58.635 324.554 58.3899 325.19 58.1375C326.857 57.56 326.857 57.56 328.571 57.56C328.571 56.9792 328.571 56.3984 328.571 55.8C330.767 54.6611 332.963 53.5248 335.161 52.39C335.779 52.069 336.397 51.7479 337.034 51.4172C340.17 49.8002 343.281 48.266 346.571 47Z" fill="#3F719A"/>
<path d="M244.899 73C244.615 75.2267 244.331 77.4535 244.038 79.7477C245.458 79.191 246.878 78.6343 248.342 78.0608C248.768 78.4783 248.768 78.4783 249.203 78.9042C254.439 79.3409 258.929 78.1514 263.835 76.3739C264.119 76.0955 264.404 75.8172 264.696 75.5304C266.13 75.4961 267.566 75.4944 269 75.5304C267.935 77.617 267.136 77.8545 265.019 78.8515C264.404 79.1418 263.79 79.4321 263.156 79.7312C260.535 80.9158 257.893 82.0335 255.228 83.1216C257.784 83.5391 257.784 83.5391 260.392 83.965C260.392 84.2434 260.392 84.5217 260.392 84.8085C257.595 84.8576 254.798 84.8875 252 84.9139C251.208 84.9281 250.415 84.9422 249.599 84.9568C248.451 84.9649 248.451 84.9649 247.279 84.9732C246.224 84.9865 246.224 84.9865 245.148 85C242.93 84.7844 241.589 84.3295 239.734 83.1216C238.658 80.4857 238.658 80.4857 238.013 78.0608C237.144 78.1217 236.275 78.1826 235.38 78.2453C223.917 78.9868 212.484 78.9931 201 78.9042C201.284 77.7909 201.568 76.6775 201.861 75.5304C204.257 74.8787 206.476 74.548 208.959 74.4363C209.671 74.4026 210.383 74.3689 211.117 74.3342C212.261 74.2853 212.261 74.2853 213.427 74.2355C214.217 74.1993 215.006 74.163 215.819 74.1257C218.339 74.0109 220.859 73.9008 223.38 73.7907C225.077 73.7136 226.773 73.6362 228.47 73.5585C230.091 73.4852 231.712 73.4121 233.332 73.3394C234.094 73.3051 234.857 73.2709 235.642 73.2356C236.354 73.2045 237.067 73.1735 237.801 73.1415C238.425 73.114 239.049 73.0866 239.692 73.0584C241.427 73.001 243.163 73 244.899 73Z" fill="#3D7197"/>
<path d="M385 17.0061C384.54 20.3237 383.703 22.2692 381.533 24.8204C380.675 24.6055 379.817 24.3906 378.933 24.1692C375.421 23.6686 373.443 24.6933 370.422 26.4009C368.344 27.5276 366.243 28.3701 364.037 29.216C360.989 30.4051 358.327 31.7925 355.533 33.503C354.711 33.7538 353.889 34.0045 353.042 34.2628C350.281 35.2584 348.362 36.6489 346.037 38.4074C343.249 40.2551 340.196 41.4436 337.134 42.7656C334.772 43.9036 332.79 45.2076 330.671 46.744C327.065 49.2874 324.38 49.8404 320 50C321.98 45.8475 324.175 44.5374 328.287 42.6198C329.38 42.101 330.472 41.5821 331.565 41.063C332.102 40.813 332.639 40.563 333.193 40.3054C335.337 39.2967 337.444 38.218 339.554 37.1389C341.608 36.094 343.592 35.1679 345.753 34.3611C347.869 33.6968 347.869 33.6968 348.6 31.7665C351.221 30.3782 353.899 29.1444 356.586 27.8899C359.201 26.688 359.201 26.688 360.733 23.9522C360.823 23.3612 360.912 22.7703 361.004 22.1614C361.6 20.4791 361.6 20.4791 363.415 19.5363C366.381 18.6017 369.059 18.4082 372.162 18.2542C376.677 18.0222 380.502 16.9081 385 17.0061Z" fill="#5091B9"/>
<path d="M457.296 225.233C460.557 226.485 460.557 226.485 462.694 227.737C462.397 228.839 462.101 229.941 461.795 231.077C461.349 230.939 460.904 230.801 460.445 230.659C457.208 230.059 454.304 230.093 450.998 230.242C450.404 230.793 449.81 231.344 449.198 231.912C449.156 233.655 449.156 233.655 450.098 235.251C452.004 236.056 452.004 236.056 454.315 236.451C458.835 237.576 461.409 238.615 464.494 241.929C465.169 244.851 465.169 244.851 464.494 247.773C462.109 250.389 459.106 252.594 455.373 252.981C449.753 253.132 446.624 252.427 442 249.443C442.297 248.616 442.594 247.79 442.9 246.938C443.79 247.076 444.681 247.214 445.599 247.356C452.058 248.271 452.058 248.271 458.196 246.938C458.196 245.836 458.196 244.734 458.196 243.599C457.523 243.377 456.85 243.156 456.157 242.927C454.828 242.485 454.828 242.485 453.472 242.034C452.595 241.743 451.718 241.453 450.815 241.153C445.114 239.129 445.114 239.129 443.575 237.129C442.679 234.637 442.555 232.858 442.9 230.242C446.846 224.75 450.552 224.659 457.296 225.233Z" fill="#71B4F0"/>
<path d="M481.505 231.356C485.328 233.852 487.349 236.385 489 240.68C489 241.52 489 242.359 489 243.224C483.778 243.224 478.556 243.224 473.176 243.224C474.001 244.622 474.825 246.021 475.675 247.462C478.335 247.975 478.335 247.975 481.244 247.727C482.227 247.689 483.209 247.65 484.221 247.611C484.974 247.562 485.726 247.513 486.502 247.462C485.825 249.104 485.825 249.104 484.836 250.853C481.217 252.08 477.787 252.253 474.009 251.7C471.272 249.61 469.27 247.402 468.179 244.071C467.752 240.736 468.031 239.26 469.637 236.283C473.058 231.93 475.861 230.183 481.505 231.356Z" fill="#75AFE8"/>
<path d="M584.461 231.368C587.179 233.188 589.557 235.313 591 238.428C591 240.176 591 241.924 591 243.724C586.145 243.724 581.289 243.724 576.286 243.724C577.378 248.088 577.378 248.088 579.556 249.02C582.936 249.186 586.046 248.82 589.365 248.137C587.512 250.806 586.416 252.306 583.33 252.967C579.854 253.096 577.693 252.921 574.652 251.006C571.813 247.558 570.923 245.041 571.005 240.283C571.702 236.851 573.914 234.539 576.286 232.25C578.953 230.81 581.59 230.76 584.461 231.368Z" fill="#76B9F5"/>
<path d="M375.453 5.03C377.265 6.56153 377.265 6.56153 378.968 8.29727C379.856 8.7016 380.744 9.10592 381.659 9.5225C384.361 10.805 385.499 11.5262 386.876 14.015C387.041 16.6697 387.041 16.6697 386.876 18.9159C386.441 18.1073 386.441 18.1073 385.998 17.2823C384.638 17.6613 384.638 17.6613 383.252 18.048C379.778 18.8796 376.451 19.0744 372.872 19.2222C368.064 19.4766 364.476 20.2275 360.227 22.314C358.757 23 358.757 23 357 23C357 22.4609 357 21.9218 357 21.3664C358.26 20.8162 359.524 20.273 360.789 19.7327C361.845 19.2779 361.845 19.2779 362.921 18.8138C364.908 18.0991 364.908 18.0991 367.545 18.0991C367.545 17.56 367.545 17.0209 367.545 16.4655C368.125 16.4655 368.705 16.4655 369.302 16.4655C369.012 15.9264 368.722 15.3873 368.423 14.8318C366.202 14.2964 366.202 14.2964 364.03 14.015C364.03 13.2063 364.03 12.3977 364.03 11.5645C365.19 11.8341 366.35 12.1036 367.545 12.3814C367.255 11.5727 366.965 10.7641 366.666 9.93091C364.636 10.2005 362.606 10.47 360.515 10.7477C360.515 9.66953 360.515 8.59133 360.515 7.48045C369.917 3.38319 369.917 3.38319 375.453 5.03Z" fill="#C3CED6"/>
<path d="M677.636 157C679.663 159.383 680.968 161.667 682.181 164.502C682.523 165.299 682.865 166.097 683.218 166.918C683.567 167.745 683.916 168.572 684.276 169.424C684.635 170.257 684.994 171.091 685.364 171.949C688 178.134 688 178.134 688 180C681.73 180 675.46 180 669 180C669.634 176.984 670.289 174.593 671.429 171.776C671.734 171.018 672.039 170.261 672.353 169.48C672.672 168.699 672.99 167.918 673.318 167.114C673.637 166.323 673.955 165.533 674.283 164.719C676.629 158.916 676.629 158.916 677.636 157Z" fill="#F4F4F6"/>
<path d="M660 226C662.009 226 664.017 226 666.087 226C666.087 233.239 666.087 240.479 666.087 247.938C670.678 247.938 675.27 247.938 680 247.938C680 249.608 680 251.279 680 253C673.4 253 666.8 253 660 253C660 244.09 660 235.18 660 226Z" fill="#84BDEF"/>
<path d="M224.421 33C228.28 33.4124 230.49 35.9327 233.161 38.3844C234.146 39.2654 235.132 40.1461 236.118 41.0262C237.022 41.8397 237.926 42.6532 238.829 43.4668C243.224 47.555 243.224 47.555 249 49.1027C249 49.3684 249 49.6341 249 49.9079C244.683 50.7267 240.511 50.8873 236.128 50.9143C235.444 50.9309 234.761 50.9475 234.057 50.9646C233.071 50.9708 233.071 50.9708 232.065 50.9772C231.472 50.9847 230.878 50.9922 230.267 51C228.152 50.6227 227.448 49.8742 226.116 48.2976C224.911 45.8853 224.911 45.8853 223.785 43.1145C223.215 41.7461 223.215 41.7461 222.633 40.35C221.899 37.8996 221.652 36.8958 222.726 34.6103C223.285 34.0789 223.844 33.5475 224.421 33Z" fill="#5FADDA"/>
<path d="M635 226C636.71 226 638.42 226 640.182 226C640.182 233.239 640.182 240.479 640.182 247.938C644.742 247.938 649.302 247.938 654 247.938C654 249.608 654 251.279 654 253C647.73 253 641.46 253 635 253C635 244.09 635 235.18 635 226Z" fill="#76B8EF"/>
<path d="M205.837 166C206.054 167.95 206.054 167.95 205.837 170.231C204.423 171.612 204.423 171.612 202.357 172.875C201.575 173.37 200.792 173.865 199.985 174.376C199.046 174.962 198.106 175.549 197.138 176.154C194.699 177.761 192.276 179.391 189.852 181.019C189.252 181.419 188.653 181.818 188.034 182.229C185.705 183.781 183.403 185.323 181.174 187.008C179.74 188 179.74 188 178 188C178 185.487 178 182.974 178 180.385C179.148 180.105 180.297 179.826 181.48 179.538C181.48 178.98 181.48 178.422 181.48 177.846C183.303 176.545 185.112 175.36 187.025 174.197C187.577 173.858 188.13 173.519 188.698 173.169C200.518 166 200.518 166 205.837 166Z" fill="#6591BD"/>
<path d="M609.498 231.361C610.365 231.923 611.232 232.485 612.126 233.065C612.126 234.189 612.126 235.313 612.126 236.472C611.259 236.191 610.391 235.91 609.498 235.62C608.276 235.563 607.052 235.547 605.83 235.567C604.728 235.584 603.626 235.602 602.49 235.62C602.49 236.463 602.49 237.306 602.49 238.175C603.229 238.401 603.967 238.628 604.728 238.861C606.168 239.312 606.168 239.312 607.636 239.772C609.069 240.217 609.069 240.217 610.531 240.671C613.002 241.582 613.002 241.582 614.754 243.286C615.082 245.309 615.082 245.309 614.754 247.545C613.115 249.456 611.785 250.692 609.498 251.804C608.077 251.907 606.652 251.953 605.227 251.963C604.093 251.982 604.093 251.982 602.935 252C600.629 251.794 599.214 251.233 597.234 250.1C597.234 248.976 597.234 247.851 597.234 246.693C597.727 246.832 598.219 246.972 598.726 247.116C600.853 247.569 602.726 247.629 604.899 247.598C605.949 247.587 605.949 247.587 607.02 247.575C607.549 247.565 608.077 247.555 608.622 247.545C608.911 246.702 609.2 245.858 609.498 244.989C608.833 244.906 608.168 244.823 607.482 244.737C606.612 244.609 605.741 244.482 604.844 244.351C603.98 244.232 603.117 244.113 602.227 243.991C599.411 243.151 598.647 242.352 597.234 239.879C596.786 236.889 596.877 235.369 598.439 232.745C601.925 230.647 605.495 230.802 609.498 231.361Z" fill="#84BEF4"/>
<path d="M261.721 57.0709C262.749 57.1008 263.778 57.1307 264.837 57.1615C265.621 57.1999 266.405 57.2384 267.213 57.278C267.213 58.3714 267.213 59.4649 267.213 60.5914C268.663 60.5914 270.113 60.5914 271.606 60.5914C271.316 62.2316 271.026 63.8717 270.728 65.5616C272.468 66.1083 274.207 66.655 276 67.2183C276 67.4917 276 67.765 276 68.0467C260.602 70.7684 260.602 70.7684 255.075 67.2701C252.282 64.7875 252.282 64.7875 252 62.8176C252.275 60.5914 252.275 60.5914 253.678 58.8085C256.489 56.7708 258.219 56.9389 261.721 57.0709Z" fill="#ADC0CF"/>
<path d="M283.696 50C285.158 52.1697 285.348 53.4325 285.348 56.0937C284.32 59.9172 282.517 62.401 279.565 65C279.02 65 278.475 65 277.913 65C277.913 65.55 277.913 66.1 277.913 66.6667C280.912 66.3917 283.91 66.1167 287 65.8333C284.575 68.2794 282.996 68.983 279.839 70.0879C276.907 71.2225 274.166 72.7057 271.388 74.1764C269.652 75 269.652 75 268 75C268 74.45 268 73.9 268 73.3333C268.818 73.3333 269.636 73.3333 270.478 73.3333C270.751 72.5083 271.023 71.6833 271.304 70.8333C273.712 69.7178 276.191 69.0937 278.739 68.3333C276.013 67.5083 273.287 66.6833 270.478 65.8333C270.323 63.0208 270.323 63.0208 270.478 60C271.296 59.45 272.114 58.9 272.956 58.3333C273.229 57.5083 273.502 56.6833 273.783 55.8333C276.261 54.1667 276.261 54.1667 278.739 53.3854C281.11 52.5384 282.135 51.9237 283.696 50Z" fill="#517EA3"/>
<path d="M561.788 231.547C564.473 233.239 564.473 233.239 566 234.93C565.722 236.046 565.444 237.163 565.158 238.313C561.893 236.727 561.893 236.727 560.946 235.776C557.522 235.949 557.522 235.949 554.207 236.621C552.248 239.572 552.169 240.763 552.522 244.233C553.224 246.347 553.224 246.347 555.049 247.615C558.896 247.927 562.245 247.712 566 246.77C565.705 248.917 565.292 250.001 563.841 251.632C560.915 253.139 558.231 253.249 555.049 252.689C551.713 250.92 549.479 249.113 547.468 245.924C546.699 242.353 546.817 238.968 548.277 235.601C551.724 230.69 556.174 230.425 561.788 231.547Z" fill="#72B7F4"/>
<path d="M510 232C511.663 232 513.326 232 515.04 232C515.394 232.889 515.748 233.778 516.113 234.695C516.578 235.854 517.043 237.014 517.507 238.174C517.741 238.761 517.974 239.348 518.215 239.952C519.208 242.83 519.208 242.83 520.92 245.281C522.86 240.899 524.801 236.516 526.8 232C528.186 232 529.572 232 531 232C526.603 247.966 526.603 247.966 522.6 251.922C520.395 252.026 520.395 252.026 518.4 251.922C517.311 249.537 516.228 247.15 515.145 244.763C514.839 244.092 514.532 243.421 514.216 242.73C512.618 239.197 511.153 235.705 510 232Z" fill="#5DAFF0"/>
<path d="M324.269 21C325.126 21.4125 325.126 21.4125 326 21.8333C322.548 24.8122 318.731 26.7628 314.675 28.8548C305.106 33.4219 305.106 33.4219 298.298 41C298.264 42.3885 298.261 43.7783 298.298 45.1667C297.727 45.1667 297.156 45.1667 296.567 45.1667C295.996 44.0667 295.424 42.9667 294.836 41.8333C293.122 42.1083 291.408 42.3833 289.642 42.6667C289.642 43.2167 289.642 43.7667 289.642 44.3333C290.213 44.6083 290.784 44.8833 291.373 45.1667C290.588 45.476 289.802 45.7854 288.993 46.1042C285.763 47.8977 284.649 49.6515 282.716 52.6667C279.524 54.7152 276.919 55.177 273.194 56C274.303 52.9621 275.07 51.6944 277.522 49.3333C274.38 49.0583 271.238 48.7833 268 48.5C268 48.225 268 47.95 268 47.6667C268.944 47.6634 268.944 47.6634 269.907 47.6602C281.951 47.2142 290.557 40.8232 300.382 34.7345C305.901 31.3179 311.465 27.9955 317.127 24.8021C318.171 24.204 318.171 24.204 319.235 23.5938C319.874 23.2374 320.513 22.8809 321.171 22.5137C321.73 22.1995 322.289 21.8854 322.864 21.5617C323.328 21.3764 323.791 21.191 324.269 21Z" fill="#D7DADE"/>
<path d="M49.1395 168C49.5655 169.281 49.5655 169.281 50 170.588C49.5022 171.069 49.0044 171.55 48.4915 172.046C35.8439 184.328 24.9291 196.404 16.4419 212C15.5814 209.412 15.5814 209.412 16.8183 206.662C17.262 205.861 17.7057 205.06 18.1628 204.235C15.6072 206.371 15.6072 206.371 13 208.549C14.8154 203.381 18.1123 199.746 21.6047 195.608C22.1326 194.981 22.6606 194.353 23.2046 193.707C27.8411 188.389 32.8222 183.41 37.7922 178.407C38.5124 177.681 39.2326 176.955 39.9746 176.206C40.662 175.519 41.3493 174.832 42.0575 174.123C42.6751 173.505 43.2927 172.887 43.9291 172.25C45.5893 170.69 47.2918 169.328 49.1395 168Z" fill="#367BD2"/>
<path d="M380.901 30C381.118 35.2227 381.145 39.9228 379.166 44.8065C373.539 48.8247 366.766 49.6581 360.074 50.9032C359.788 52.9152 359.502 54.9271 359.207 57C358.92 57 358.634 57 358.339 57C358.267 56.1018 358.196 55.2036 358.122 54.2782C357.415 50.6143 356.123 48.6862 354 45.6774C357.127 45.3852 360.255 45.0956 363.383 44.8065C364.272 44.7234 365.16 44.6403 366.076 44.5547C366.929 44.4761 367.782 44.3975 368.661 44.3165C369.84 44.2071 369.84 44.2071 371.043 44.0954C373.091 43.9355 373.091 43.9355 375.695 43.9355C375.659 42.9116 375.623 41.8876 375.586 40.8327C375.586 37.1875 376.178 34.2928 377.43 30.871C379.166 30 379.166 30 380.901 30Z" fill="#64819E"/>
<path d="M495 232C499.286 232 499.286 232 501.857 232.833C503.579 232.604 505.296 232.331 507 232C507 233.375 507 234.75 507 236.167C504.03 237.404 504.03 237.404 501 238.667C500.717 243.067 500.434 247.467 500.143 252C498.446 252 496.749 252 495 252C495 245.4 495 238.8 495 232Z" fill="#6FAFEB"/>
<path d="M127 248C126.724 249.358 126.446 250.715 126.167 252.072C125.935 253.206 125.935 253.206 125.698 254.363C125.222 256.462 125.222 256.462 124.333 259C117.293 259 110.253 259 103 259C103.293 258.162 103.587 257.325 103.889 256.462C106.191 255.437 106.191 255.437 109.167 254.452C113.832 252.845 118.172 251.019 122.535 248.777C124.333 248 124.333 248 127 248Z" fill="#538CC7"/>
<path d="M245 73C244.299 74.6607 244.299 74.6607 243.274 76.4286C240.028 77.5037 237.001 77.3774 233.623 77.3393C232.976 77.3354 232.329 77.3316 231.663 77.3276C230.069 77.3175 228.476 77.3021 226.882 77.2857C227.736 76.72 228.591 76.1543 229.471 75.5714C228.933 75.7471 228.396 75.9228 227.843 76.1038C219.018 78.6595 210.137 78.7691 201 79C201.285 77.8686 201.569 76.7371 201.863 75.5714C204.264 74.9092 206.489 74.5731 208.977 74.4596C209.691 74.4254 210.405 74.3911 211.141 74.3558C212.287 74.3062 212.287 74.3062 213.456 74.2556C214.247 74.2187 215.038 74.1819 215.853 74.144C218.379 74.0273 220.905 73.9155 223.431 73.8036C225.132 73.7252 226.833 73.6465 228.534 73.5675C230.158 73.493 231.782 73.4188 233.407 73.3449C234.171 73.3101 234.935 73.2752 235.722 73.2394C236.436 73.2078 237.15 73.1763 237.886 73.1438C238.511 73.1159 239.137 73.088 239.782 73.0593C241.52 73.001 243.26 73 245 73Z" fill="#164E87"/>
<path d="M351.727 46C354.638 46.5219 356 47.5552 357.794 49.569C359.324 52.2548 359.141 55.079 358.641 57.9889C357.221 59.2053 355.768 58.9483 353.807 59C349.954 58.9369 349.954 58.9369 347.736 57.6519C346.535 54.6407 346.972 51.8094 347.848 48.7444C349.647 46.4333 349.647 46.4333 351.727 46Z" fill="#2C3E54"/>
<path d="M690 229.185C696.996 228.938 696.996 228.938 699.163 229.185C701.215 232.287 701.154 233.915 700.829 237.582C699.544 239.348 698.595 239.967 696.664 240.941C694.438 241.054 692.23 240.977 690 240.941C690 237.061 690 233.182 690 229.185Z" fill="#F3F2F3"/>
<path d="M690 226.091C695.818 225.895 700.87 225.741 705.986 228.735C707.742 231.348 708.162 234.058 707.949 237.089C706.183 240.301 704.859 241.852 701.667 243.858C699.637 244.023 699.637 244.023 697.46 243.964C696.735 243.948 696.009 243.933 695.262 243.917C694.71 243.898 694.158 243.878 693.59 243.858C694.312 243.334 695.034 242.811 695.777 242.272C698.112 240.692 698.112 240.692 698.975 238.782C699.567 238.782 700.159 238.782 700.77 238.782C700.818 237.566 700.853 236.349 700.882 235.133C700.903 234.456 700.923 233.778 700.945 233.081C700.912 230.927 700.912 230.927 698.975 228.629C696.806 227.954 696.806 227.954 694.375 227.624C693.15 227.423 693.15 227.423 691.9 227.218C691.273 227.125 690.646 227.032 690 226.937C690 226.657 690 226.378 690 226.091Z" fill="#61AEF2"/>
<path d="M362 29.7034C356.484 33.0414 356.484 33.0414 353.25 34.0606C350.506 35.0407 348.595 36.4612 346.288 38.2178C343.473 40.0958 340.39 41.3037 337.298 42.6473C334.914 43.8039 332.913 45.1292 330.773 46.6908C327.132 49.2757 324.422 49.8378 320 50C321.999 45.7796 324.215 44.448 328.367 42.4991C329.474 41.9707 330.58 41.4422 331.686 40.9134C332.5 40.532 332.5 40.532 333.331 40.143C335.441 39.1421 337.507 38.0622 339.578 36.9837C342.599 35.4602 345.618 34.1547 348.803 33.023C351.734 31.9415 354.587 30.665 357.451 29.4138C359.375 28.8209 359.375 28.8209 362 29.7034Z" fill="#4888B0"/>
<path d="M582.372 231.029C585.649 231.902 587.917 234.08 590.143 236.5C591 238.167 591 238.167 591 243.167C585.343 243.442 579.686 243.717 573.857 244C573.857 242.9 573.857 241.8 573.857 240.667C578.1 240.392 582.343 240.117 586.714 239.834C585.429 236.5 585.429 236.5 583.286 235.667C581.537 235.608 579.786 235.597 578.036 235.615C577.097 235.623 576.157 235.63 575.19 235.638C574.106 235.652 574.106 235.652 573 235.667C575.768 232.303 577.786 230.766 582.372 231.029Z" fill="#63ADEE"/>
<path d="M535 232C536.98 232 538.96 232 541 232C541 238.6 541 245.2 541 252C539.02 252 537.04 252 535 252C535 245.4 535 238.8 535 232Z" fill="#64AEED"/>
<path d="M283.925 50C284.212 50 284.499 50 284.795 50C285.337 54.3546 284.907 56.3935 282.239 59.9337C281.1 61.3324 279.975 62.6961 278.703 63.9727C277.253 64.0082 275.801 64.01 274.351 63.9727C274.064 63.3963 273.777 62.8199 273.481 62.2261C271.719 61.6566 271.719 61.6566 270 61.3528C270.413 60.9746 270.826 60.5963 271.251 60.2066C272.817 58.7128 272.817 58.7128 273.481 56.1131C276.092 54.3665 276.092 54.3665 278.703 53.5478C281.227 52.6507 282.221 51.9791 283.925 50Z" fill="#6D94B2"/>
<path d="M527.094 232C528.383 232 529.672 232 531 232C529.804 236.894 528.401 241.673 526.753 246.402C526.448 247.282 526.143 248.162 525.828 249.069C524.751 251.13 524.751 251.13 523.064 251.861C522.59 251.907 522.115 251.953 521.627 252C520.708 248.592 520.728 246.571 522.164 243.467C522.453 242.888 522.742 242.308 523.039 241.711C524.044 239.676 524.891 237.605 525.728 235.478C525.989 234.815 526.251 234.151 526.521 233.467C526.71 232.983 526.899 232.499 527.094 232Z" fill="#74B3EE"/>
<path d="M285.821 50C287.193 50.0464 288.563 50.1457 289.929 50.2727C290.674 50.3384 291.42 50.404 292.188 50.4716C294.036 50.7273 294.036 50.7273 294.858 51.4545C295.153 56.1538 295.153 56.1538 293.215 58.7273C291.264 59.0909 291.264 59.0909 289.107 58.7273C286.212 56.3067 285.269 54.2237 285 50.7273C285.271 50.4873 285.542 50.2473 285.821 50Z" fill="#2E3B4D"/>
<path d="M381 23.9169C381 26.4377 381 26.4377 379 28.4858C372.07 34 372.07 34 368.765 34C368.765 33.4454 368.765 32.8909 368.765 32.3195C367.833 32.5968 366.901 32.8741 365.941 33.1597C365.631 32.3279 365.32 31.496 365 30.639C366.242 30.0844 367.485 29.5298 368.765 28.9585C368.765 28.1266 368.765 27.2947 368.765 26.4377C376.541 22.424 376.541 22.424 381 23.9169Z" fill="#355B83"/>
<path d="M609.454 242C613.64 242.577 613.64 242.577 614.791 243.635C615.069 245.526 615.069 245.526 614.791 247.723C613.128 249.558 611.777 250.744 609.454 251.812C608.011 251.911 606.564 251.955 605.117 251.965C603.965 251.982 603.965 251.982 602.789 252C600.448 251.802 599.011 251.264 597 250.176C597 249.097 597 248.018 597 246.906C597.5 247.04 598 247.173 598.515 247.311C600.674 247.747 602.577 247.804 604.784 247.775C605.85 247.763 605.85 247.763 606.938 247.752C607.743 247.738 607.743 247.738 608.564 247.723C609.152 246.374 609.739 245.025 610.344 243.635C609.756 243.365 609.169 243.096 608.564 242.818C608.858 242.548 609.152 242.278 609.454 242Z" fill="#70B6F4"/>
<path d="M358.143 94C358.426 94.8353 358.709 95.6706 359 96.5312C358.434 96.5312 357.869 96.5312 357.286 96.5312C357.286 97.3666 357.286 98.2019 357.286 99.0625C356.72 99.0625 356.154 99.0625 355.571 99.0625C355.557 99.7662 355.543 100.47 355.528 101.195C354.354 105.422 351.73 107.551 348.554 110.506C347.704 111.324 347.704 111.324 346.838 112.159C343.585 115.266 340.235 118.192 336.714 121C336.149 120.722 335.583 120.443 335 120.156C335.405 119.777 335.811 119.397 336.229 119.006C343.347 112.19 349.339 104.623 355.032 96.6301C356.429 94.8438 356.429 94.8438 358.143 94Z" fill="#52A8EE"/>
<path d="M232.836 74.1003C231.072 74.9542 231.072 74.9542 229.273 75.8253C231.129 75.8486 232.985 75.8653 234.841 75.8792C236.391 75.8942 236.391 75.8942 237.973 75.9095C240.329 75.8406 242.189 75.6411 244.418 74.9628C244.418 76.3859 244.418 77.8089 244.418 79.2751C245.888 78.7059 247.358 78.1366 248.873 77.5502C249.314 77.9771 249.314 77.9771 249.764 78.4126C251.838 78.7297 253.917 79.0184 256 79.2751C256 79.5597 256 79.8443 256 80.1375C250.414 80.4222 244.828 80.7068 239.073 81C238.632 79.2923 238.632 79.2923 238.182 77.5502C237.2 77.6124 236.218 77.6747 235.206 77.7388C225.79 78.3064 216.433 78.5167 207 78.4126C207 78.128 207 77.8434 207 77.5502C207.733 77.5179 208.465 77.4857 209.22 77.4525C214.997 77.1231 220.077 76.4296 225.559 74.6461C228.027 73.9489 230.284 73.9053 232.836 74.1003Z" fill="#5B82AB"/>
<path d="M482.053 231.282C484.32 232.434 485.375 233.546 487.15 235.467C487.894 237.821 487.894 237.821 488 239.652C487.141 238.961 486.283 238.271 485.398 237.559C483.081 235.953 481.904 235.438 479.027 234.891C475.571 235.572 474.278 236.684 471.916 239.145C470.775 240.569 470.775 240.569 471.01 243C470.449 243 469.888 243 469.311 243C468.802 237.989 468.802 237.989 470.197 235.663C473.681 231.515 476.636 230.4 482.053 231.282Z" fill="#64ABF0"/>
<path d="M23.7059 192C23.9776 192.574 24.2494 193.148 24.5294 193.739C25.3447 194.026 26.16 194.313 27 194.609C26.5722 195.208 26.1444 195.808 25.7036 196.426C22.1787 201.441 18.9973 206.442 16.2941 212C15.4706 209.391 15.4706 209.391 16.6544 206.62C17.079 205.812 17.5037 205.005 17.9412 204.174C15.4953 206.326 15.4953 206.326 13 208.522C14.1376 205.043 15.6691 202.597 17.8897 199.772C19.8834 197.218 21.8465 194.665 23.7059 192Z" fill="#487DC9"/>
<path d="M359 23.628C357.908 24.5033 356.802 25.3629 355.691 26.2158C355.076 26.6961 354.462 27.1765 353.829 27.6714C351.442 29.017 350.055 28.8874 347.333 28.8036C345.784 29.5904 344.237 30.3865 342.744 31.27C340.452 32.6023 338.06 33.6991 335.653 34.8248C333.874 35.7031 332.204 36.6846 330.506 37.699C327.59 39.1546 327.59 39.1546 325.613 38.8143C325.08 38.642 324.548 38.4696 324 38.292C324.453 38.0659 324.905 37.8398 325.372 37.6068C327.422 36.5806 329.469 35.5495 331.516 34.5182C332.229 34.1624 332.941 33.8066 333.675 33.44C334.358 33.0953 335.041 32.7506 335.744 32.3954C336.688 31.9211 336.688 31.9211 337.652 31.4372C339.401 30.5332 339.401 30.5332 341.051 28.8036C342.434 28.2034 343.84 27.6519 345.258 27.1323C348.072 26.0928 350.827 25.0129 353.559 23.7898C356.308 22.7654 356.308 22.7654 359 23.628Z" fill="#7BADC9"/>
<path d="M281.5 46C283.3 46.8333 283.3 46.8333 286 48.5C284.094 51.6931 282.703 53.7301 278.761 54.8607C276.974 55.2405 275.187 55.6202 273.4 56C274.553 52.9621 275.35 51.6944 277.9 49.3333C274.633 49.0583 271.366 48.7833 268 48.5C268 48.225 268 47.95 268 47.6667C268.748 47.6162 269.497 47.5657 270.268 47.5137C271.735 47.4089 271.735 47.4089 273.231 47.3021C274.202 47.2344 275.173 47.1667 276.174 47.097C278.854 46.9149 278.854 46.9149 281.5 46Z" fill="#9FB8CB"/>
<path d="M375.429 4.71784C376.878 6.1166 376.878 6.1166 378 7.4102C377.235 7.51894 376.471 7.62769 375.683 7.73973C374.178 7.96532 374.178 7.96532 372.643 8.19547C371.648 8.34123 370.654 8.487 369.629 8.63718C367.192 9.13653 365.588 9.80781 363.429 11C361.5 10.6635 361.5 10.6635 360 10.1025C360.857 7.4102 360.857 7.4102 362.605 6.33045C367.19 4.38696 370.498 3.13751 375.429 4.71784Z" fill="#5A759A"/>
<path d="M470 246C470.754 246.355 471.508 246.711 472.284 247.077C476.95 248.812 482.012 248.325 487 248.154C486.309 249.546 486.309 249.546 485.3 251.027C481.608 252.066 478.104 252.216 474.25 251.745C471.594 250.084 471.594 250.084 470 248.154C470 247.443 470 246.732 470 246Z" fill="#56ADF9"/>
<path d="M380.943 30C381.191 35.3549 380.647 39.8488 378.979 45C377.682 44.7088 376.386 44.4176 375.05 44.1176C374.861 39.2677 375.145 35.4534 377.014 30.8824C378.979 30 378.979 30 380.943 30Z" fill="#8CBBDD"/>
<path d="M382.308 19C382.866 19 383.425 19 384 19C383.312 21.2159 383.312 21.2159 382.308 23.5455C379.769 24.4545 379.769 24.4545 377.918 23.8295C374.781 23.455 373.281 24.6205 370.577 26.2195C367.806 27.6943 365.016 28.3057 362 29C364.426 24.9822 366.609 23.6586 370.709 22.2528C372.163 21.8516 372.163 21.8516 373 20.8182C374.245 20.5826 375.499 20.4011 376.755 20.25C377.774 20.1199 377.774 20.1199 378.814 19.9872C380.615 19.9091 380.615 19.9091 382.308 20.8182C382.308 20.2182 382.308 19.6182 382.308 19Z" fill="#467EA8"/>
<path d="M362 29.642C356.565 32.7108 356.565 32.7108 353.379 33.6477C351.042 34.4269 349.848 35.0982 347.937 36.4872C344.585 38.8779 341.017 39.9456 337 41C340.705 35.1894 344.038 33.8475 350.793 32.0759C353.039 31.2137 355.267 30.3227 357.488 29.4043C359.414 28.8307 359.414 28.8307 362 29.642Z" fill="#3A7FA5"/>
<path d="M245 73C244.289 74.5221 244.289 74.5221 243.25 76.1424C239.957 77.1278 236.887 77.012 233.461 76.9771C232.805 76.9736 232.149 76.97 231.473 76.9664C229.857 76.9571 228.241 76.943 226.625 76.928C227.491 76.4095 228.357 75.891 229.25 75.3568C226.651 74.9679 226.651 74.9679 224 74.5712C224 74.312 224 74.0527 224 73.7856C226.844 73.6534 229.687 73.5229 232.531 73.3928C233.337 73.3553 234.142 73.3179 234.972 73.2793C236.139 73.2261 236.139 73.2261 237.33 73.1719C238.045 73.1389 238.76 73.106 239.496 73.0721C241.33 73.0061 243.165 73 245 73Z" fill="#3B6A96"/>
<path d="M479.464 235C482.64 235.253 483.86 235.488 486 237.624C486 238.408 486 239.192 486 240C482.04 240 478.08 240 474 240C475.255 235.36 475.255 235.36 479.464 235Z" fill="#E8EFF9"/>
<path d="M584.571 235.148C586.607 236.209 586.607 236.209 588 237.574C588 238.374 588 239.175 588 240C584.04 240 580.08 240 576 240C577.292 235.124 579.607 234.67 584.571 235.148Z" fill="#E2E9F5"/>
<path d="M114 254C115.833 256.768 115.833 256.768 115.833 257.571C118.858 257.807 121.883 258.043 125 258.286C125 258.521 125 258.757 125 259C117.74 259 110.48 259 103 259C103.303 258.293 103.605 257.586 103.917 256.857C106.212 256.023 106.212 256.023 109.016 255.295C109.943 255.049 110.871 254.803 111.826 254.55C112.544 254.368 113.261 254.187 114 254Z" fill="#7BA3D0"/>
<path d="M324 39C324 39.528 324 40.056 324 40.6C321.162 41.503 318.352 42.3704 315.429 43C315.429 43.528 315.429 44.056 315.429 44.6C314.297 44.864 313.166 45.128 312 45.4C312 45.928 312 46.456 312 47C308.04 47 304.08 47 300 47C300 46.736 300 46.472 300 46.2C303.819 45.804 303.819 45.804 307.714 45.4C307.714 44.872 307.714 44.344 307.714 43.8C318.98 39 318.98 39 324 39Z" fill="#86B0C9"/>
<path d="M298.286 38C298.851 38.2538 299.417 38.5077 300 38.7692C299.151 39.9115 299.151 39.9115 298.286 41.0769C298.142 43.0964 298.142 43.0964 298.286 44.9231C297.72 44.9231 297.154 44.9231 296.571 44.9231C296.006 43.9077 295.44 42.8923 294.857 41.8462C293.16 42.1 291.463 42.3538 289.714 42.6154C289.714 43.1231 289.714 43.6308 289.714 44.1538C290.28 44.4077 290.846 44.6615 291.429 44.9231C288.6 45.9385 285.771 46.9538 282.857 48C282.574 47.4923 282.291 46.9846 282 46.4615C285.728 42.5338 290.995 39.9038 296.571 38.7692C297.137 38.5154 297.703 38.2615 298.286 38Z" fill="#C8D4DB"/>
<path d="M183 41C184.441 41.1068 184.441 41.1068 186.385 41.8824C187.848 43.6428 189.128 45.3361 190.404 47.2316C190.752 47.7326 191.1 48.2337 191.458 48.7499C192.314 49.9841 193.158 51.2266 194 52.4706C193.162 53.6353 192.325 54.8 191.462 56C190.047 53.8341 188.637 51.6646 187.231 49.4926C186.827 48.8762 186.424 48.2597 186.008 47.6245C185.626 47.0331 185.244 46.4416 184.851 45.8323C184.496 45.287 184.142 44.7418 183.777 44.18C183 42.7647 183 42.7647 183 41Z" fill="#32A9FC"/>
<path d="M272.877 48C273.968 48.016 273.968 48.016 275.082 48.0324C275.811 48.0407 276.541 48.0491 277.293 48.0576C277.856 48.0683 278.419 48.079 279 48.0901C278.308 49.041 277.616 49.992 276.903 50.9717C275.298 53.2873 274.476 54.8868 273.591 57.6572C273.336 58.456 273.082 59.2549 272.819 60.0779C271.945 60.3822 271.07 60.6865 270.17 61C269.844 54.0769 269.844 54.0769 271.494 51.7786C271.931 51.4743 272.368 51.17 272.819 50.8565C271.889 49.7885 271.889 49.7885 270.17 49.0122C271.053 48.0901 271.053 48.0901 272.877 48Z" fill="#38648E"/>
<path d="M442.875 247C447.368 247.512 451.62 248.342 456 249.393C455.711 250.182 455.422 250.972 455.125 251.785C445.887 252.227 445.887 252.227 442 249.393C442.289 248.603 442.577 247.814 442.875 247Z" fill="#67B5F7"/>
<path d="M575 248C575.664 248.077 576.328 248.154 577.012 248.234C583.534 248.965 583.534 248.965 590 248C588.083 250.825 587.009 252.392 583.789 252.976C578.115 253.058 578.115 253.058 575 250.763C575 249.851 575 248.939 575 248Z" fill="#56B2FB"/>
<path d="M365.308 28C365.866 28.2593 366.425 28.5186 367 28.7857C363.248 31.9109 359.093 33.7454 354.572 35.7098C353.839 36.0395 353.105 36.3692 352.349 36.7088C351.648 37.0162 350.948 37.3236 350.226 37.6403C349.269 38.0609 349.269 38.0609 348.293 38.4899C347.765 38.6583 347.237 38.8266 346.692 39C346.134 38.7407 345.575 38.4814 345 38.2143C348.852 35.3274 352.063 33.2609 356.846 31.9286C359.076 30.8966 361.276 29.8232 363.47 28.7274C364.076 28.4874 364.683 28.2473 365.308 28Z" fill="#306994"/>
<path d="M472.444 238C472.738 238.6 473.031 239.2 473.333 239.818C476.853 239.818 480.373 239.818 484 239.818C484 240.118 484 240.418 484 240.727C480.187 240.727 476.373 240.727 472.444 240.727C473.324 243.127 474.204 245.527 475.111 248C473.938 247.7 472.764 247.4 471.556 247.091C470.676 247.091 469.796 247.091 468.889 247.091C468.596 244.391 468.302 241.691 468 238.909C468.293 238.909 468.587 238.909 468.889 238.909C468.889 240.409 468.889 241.909 468.889 243.455C469.311 242.723 469.732 241.992 470.167 241.239C471.556 238.909 471.556 238.909 472.444 238Z" fill="#83BBF1"/>
<path d="M252.027 61C252.309 61.5718 252.592 62.1437 252.883 62.7328C253.73 62.7328 254.577 62.7328 255.45 62.7328C255.949 63.4241 256.448 64.1155 256.961 64.8278C259.427 67.7118 260.964 67.7915 264.651 68.202C265.653 68.3238 266.654 68.4455 267.686 68.5709C268.832 68.6832 268.832 68.6832 270 68.7977C270 69.0836 270 69.3695 270 69.6641C258.042 70.2611 258.042 70.2611 254.755 67.9854C252.883 66.1984 252.883 66.1984 252.027 65.332C251.992 63.8885 251.99 62.4435 252.027 61Z" fill="#92B4CD"/>
<path d="M335.615 30C336.732 30.5186 337.849 31.0371 339 31.5714C336.449 32.857 333.891 34.1304 331.332 35.4018C330.615 35.7634 329.897 36.1249 329.158 36.4975C325.147 38.4821 321.428 40.0293 317 41C317 40.4814 317 39.9629 317 39.4286C318.949 38.4541 320.739 37.7592 322.87 37.1696C325.693 36.2068 327.383 34.9025 329.692 33.1429C331.093 32.5982 332.502 32.0706 333.923 31.5714C334.482 31.0529 335.04 30.5343 335.615 30Z" fill="#A8C1D4"/>
<path d="M256.571 81.9454C255.723 82.4494 255.723 82.4494 254.857 82.9636C257.403 83.4676 257.403 83.4676 260 83.9818C260 84.3178 260 84.6538 260 85C254.343 85 248.686 85 242.857 85C242.574 84.328 242.291 83.656 242 82.9636C244.143 81.6908 245.937 81.5748 248.321 81.309C249.141 81.2119 249.961 81.1148 250.806 81.0147C252.958 80.9341 254.534 81.1769 256.571 81.9454Z" fill="#516F8D"/>
<path d="M287 67.0626C284.869 69.1231 282.841 69.8369 279.839 70.7466C276.907 71.7291 274.166 73.0134 271.388 74.2869C269.652 75 269.652 75 268 75C268 74.5238 268 74.0475 268 73.5568C268.818 73.5568 269.636 73.5568 270.478 73.5568C270.751 72.8425 271.023 72.1281 271.304 71.3921C273.076 70.6 273.076 70.6 275.28 69.9038C278.367 68.9141 278.367 68.9141 281.343 67.7024C283.297 66.8833 284.861 66.9588 287 67.0626Z" fill="#5793B7"/>
<path d="M291.42 45.0783C293.364 45.7846 293.364 45.7846 295 47.523C294.73 48.6704 294.46 49.8178 294.182 51C291.482 50.7132 288.782 50.4263 286 50.1308C286 47.523 286 47.523 287.381 46.0019C289.273 44.9153 289.273 44.9153 291.42 45.0783Z" fill="#486076"/>
<path d="M296.4 41C296.4 42.2833 296.4 43.5667 296.4 44.8889C296.928 44.8889 297.456 44.8889 298 44.8889C298 45.4022 298 45.9156 298 46.4444C296.416 47.2144 296.416 47.2144 294.8 48C293.167 46.7432 291.567 45.4445 290 44.1111C290 43.5978 290 43.0844 290 42.5556C292.47 41.1831 293.386 41 296.4 41Z" fill="#F1F5F8"/>
<path d="M330.4 57.6906C329.828 58.8587 329.256 60.0267 328.667 61.2302C330.097 61.2302 331.527 61.2302 333 61.2302C333 61.5222 333 61.8142 333 62.1151C328.71 62.4071 324.42 62.6991 320 63C320 62.124 320 61.2479 320 60.3453C321.405 59.7287 322.814 59.1222 324.225 58.5202C325.009 58.1814 325.794 57.8426 326.602 57.4936C328.667 56.8057 328.667 56.8057 330.4 57.6906Z" fill="#4A7EA5"/>
<path d="M207 53.0662C206.728 54.0314 206.456 54.9966 206.176 55.9911C202.018 57.001 198.045 57.066 193.824 56.966C193.552 56.0008 193.28 55.0356 193 54.0412C202.488 52.9219 202.488 52.9219 207 53.0662Z" fill="#29629B"/>
<path d="M249 48.8408C249 49.1611 249 49.4814 249 49.8113C244.471 50.8131 240.108 50.9597 235.51 50.9638C234.789 50.9757 234.068 50.9876 233.326 50.9998C231.472 51.0049 229.619 50.9011 227.769 50.7818C227.185 50.1413 226.602 49.5008 226 48.8408C228.506 48.6499 231.012 48.4695 233.519 48.2949C234.219 48.2405 234.92 48.1861 235.641 48.13C240.238 47.82 244.447 48.0675 249 48.8408Z" fill="#B3C9DE"/>
<path d="M385.3 13C385.861 13.2829 386.422 13.5657 387 13.8571C387 15.5543 387 17.2514 387 19C386.719 18.4343 386.439 17.8686 386.15 17.2857C380.82 17.2857 375.491 17.2857 370 17.2857C370 16.4371 370 15.5886 370 14.7143C370.579 14.8557 371.157 14.9971 371.753 15.1429C377.176 16.0737 380.46 15.6106 385.3 13Z" fill="#B3C0CC"/>
<path d="M212.143 74.0655C212.143 74.3912 212.143 74.7169 212.143 75.0524C208.324 75.5409 208.324 75.5409 204.429 76.0393C204.429 76.6907 204.429 77.342 204.429 78.0131C204.994 77.6874 205.56 77.3618 206.143 77.0262C208.33 76.9555 210.493 76.9343 212.679 76.9645C213.587 76.9712 213.587 76.9712 214.513 76.978C216.009 76.9897 217.504 77.0074 219 77.0262C219 77.3519 219 77.6776 219 78.0131C210.09 78.5016 210.09 78.5016 201 79C201.283 77.6973 201.566 76.3946 201.857 75.0524C205.27 73.7427 208.586 73.9973 212.143 74.0655Z" fill="#2E6095"/>
<path d="M757.9 194C760.573 194 763.246 194 766 194C766 196.97 766 199.94 766 203C763.03 203 760.06 203 757 203C757 202.752 757 202.505 757 202.25C758.782 202.25 760.564 202.25 762.4 202.25C762.567 201.438 762.567 201.438 762.737 200.609C763.291 198.532 764.096 196.702 765.1 194.75C764.413 194.905 763.726 195.059 763.019 195.219C760.6 195.5 760.6 195.5 757.9 194Z" fill="#101A4E"/>
<path d="M151 116C161.56 116 172.12 116 183 116C182.715 117.65 182.429 119.3 182.135 121C181.564 119.9 180.994 118.8 180.405 117.667C170.702 117.392 160.998 117.117 151 116.833C151 116.558 151 116.283 151 116Z" fill="#A0C0DE"/>
<path d="M244.368 75C244.368 76.4143 244.368 77.8286 244.368 79.2857C245.845 78.72 247.321 78.1543 248.842 77.5714C249.137 77.8543 249.433 78.1371 249.737 78.4286C251.82 78.7437 253.908 79.0306 256 79.2857C256 79.5686 256 79.8514 256 80.1429C247.585 80.5671 247.585 80.5671 239 81C239.895 77.5714 239.895 77.5714 240.789 75.8571C243.474 75 243.474 75 244.368 75Z" fill="#4C88AF"/>
<path d="M16.8889 201C17.9156 201 18.9422 201 20 201C19.5992 205.469 18.2463 208.253 16.1111 212C15.3333 209.462 15.3333 209.462 16.4514 206.764C16.8524 205.979 17.2535 205.194 17.6667 204.385C15.3567 206.479 15.3567 206.479 13 208.615C13.9625 205.716 14.9064 203.24 16.8889 201Z" fill="#4B7AB9"/>
<path d="M259.92 58C261.182 58.0137 261.182 58.0137 262.469 58.0276C263.312 58.0347 264.155 58.0417 265.024 58.049C266.002 58.0627 266.002 58.0627 267 58.0766C266.725 59.1124 266.45 60.1482 266.167 61.2153C263.967 61.4743 261.767 61.7332 259.5 62C259.5 61.2232 259.5 60.4463 259.5 59.646C258.675 59.387 257.85 59.1281 257 58.8613C257.833 58.0766 257.833 58.0766 259.92 58Z" fill="#D4DEE6"/>
<path d="M293.273 64C293.843 64.3 294.413 64.6 295 64.9091C293.29 66.1091 291.58 67.3091 289.818 68.5455C289.248 68.2455 288.678 67.9455 288.091 67.6364C289.863 65.5929 290.688 64.9071 293.273 64ZM287.227 69.4545C283.545 73.209 280.933 73.6479 276 74C279.843 70.6107 282.196 69.3114 287.227 69.4545Z" fill="#2D5E86"/>
<path d="M301.375 36C302.241 36.2792 303.107 36.5585 304 36.8462C303.377 37.3435 303.377 37.3435 302.742 37.851C301.067 39.7299 300.839 41.1901 300.5 43.6154C301.366 43.6154 302.232 43.6154 303.125 43.6154C302.836 44.4531 302.547 45.2908 302.25 46.1538C300.517 46.4331 298.785 46.7123 297 47C297.577 46.7208 298.155 46.4415 298.75 46.1538C298.425 44.5832 298.425 44.5832 298.094 42.9808C297.837 41.1166 297.837 41.1166 297.875 39.3846C299.57 37.2692 299.57 37.2692 301.375 36Z" fill="#EDF2F6"/>
<path d="M385 17.0071C384.725 18.3248 384.45 19.6424 384.167 21C377.842 21 371.517 21 365 21C367.368 18.1631 369.2 18.6324 372.5 18.4421C376.891 18.178 380.63 16.8933 385 17.0071Z" fill="#739DBD"/>
<path d="M460.542 247.613C461.023 247.932 461.504 248.251 462 248.579C461.067 251.156 461.067 251.156 459.448 252.169C456.976 252.993 455.055 253.044 452.433 252.981C451.601 252.965 450.768 252.95 449.91 252.934C448.965 252.904 448.965 252.904 448 252.873C448 252.59 448 252.307 448 252.015C450.464 252.015 452.928 252.015 455.467 252.015C455.467 251.448 455.467 250.881 455.467 250.297C454.235 249.73 453.003 249.163 451.733 248.579C457.707 246.677 457.707 246.677 460.542 247.613Z" fill="#7CBAF2"/>
<path d="M49.1818 168C49.4518 168.838 49.7218 169.675 50 170.538C47.3 173.331 44.6 176.123 41.8182 179C41.5482 177.883 41.2782 176.766 41 175.615C43.7 173.102 46.4 170.589 49.1818 168Z" fill="#66A5EA"/>
<path d="M357.13 50C357.719 50.2682 358.307 50.5365 358.913 50.8129C358.937 52.0151 358.954 53.2175 358.969 54.4199C358.979 55.0895 358.989 55.759 359 56.4489C358.913 58.1286 358.913 58.1286 358.022 58.9414C356.668 58.9998 355.311 59.0097 353.955 58.9922C353.219 58.9849 352.482 58.9776 351.723 58.97C351.155 58.9606 350.586 58.9512 350 58.9414C350 58.6732 350 58.405 350 58.1286C351.471 57.8603 352.941 57.5921 354.456 57.3157C355.339 54.9015 356.221 52.4873 357.13 50Z" fill="#39536D"/>
<path d="M536 224C538.625 224.312 538.625 224.312 541 224.833C541 226.208 541 227.583 541 229C539.02 229 537.04 229 535 229C534.375 227.437 534.375 227.437 534 225.667C534.66 225.117 535.32 224.567 536 224Z" fill="#6EB4F3"/>
<path d="M597 247C600.279 247.858 600.279 247.858 601.231 248.962C602.371 249.188 603.519 249.365 604.668 249.513C605.768 249.655 606.867 249.797 608 249.943C608 250.59 608 251.237 608 251.904C606.484 251.931 604.968 251.95 603.452 251.966C602.608 251.977 601.763 251.988 600.894 252C598.692 251.904 598.692 251.904 597 250.923C597 249.629 597 248.334 597 247Z" fill="#5AB6FC"/>
<path d="M562.727 247C563.807 247 564.887 247 566 247C565.531 249.334 565.295 250.144 563.545 251.885C561.346 252.104 559.216 251.956 557 251.885C557 251.347 557 250.81 557 250.256C557.962 250.13 557.962 250.13 558.943 250.002C561.361 249.625 561.361 249.625 562.727 247Z" fill="#62B9F7"/>
<path d="M600.857 232.24C603.273 231.961 603.273 231.961 606.08 232.061C607.477 232.1 607.477 232.1 608.902 232.139C609.618 232.172 610.334 232.206 611.071 232.24C611.378 233.811 611.684 235.381 612 237C611.109 236.529 611.109 236.529 610.201 236.048C606.417 234.781 602.945 234.937 599 235.096C599.613 234.153 600.226 233.211 600.857 232.24Z" fill="#6CB2F1"/>
<path d="M284 52C284 54.2822 284 54.2822 281.875 56.3742C279 58.0859 279 58.0859 275.687 57.9433C274.801 57.7393 273.914 57.5353 273 57.3252C273 56.8231 273 56.321 273 55.8037C275.999 54.2828 278.591 53.5884 282 52.7607C282.66 52.5097 283.32 52.2587 284 52Z" fill="#81A3BB"/>
<path d="M337.4 39C337.928 39.2829 338.456 39.5657 339 39.8571C337.114 42.4845 336.032 43.9032 332.953 44.6183C330.965 44.8177 328.996 44.9543 327 45C328.066 42.7154 329.131 42.5068 331.3 41.5179C331.933 41.2251 332.566 40.9323 333.219 40.6306C334.593 40.0337 335.993 39.5025 337.4 39Z" fill="#488CB2"/>
<path d="M478 232C481.848 232.217 483.791 232.357 486.636 235C487.086 235.77 487.536 236.54 488 237.333C487.7 238.213 487.4 239.093 487.091 240C486.663 239.625 486.235 239.251 485.795 238.865C485.229 238.378 484.663 237.891 484.08 237.389C483.521 236.904 482.962 236.42 482.386 235.92C480.68 234.488 480.68 234.488 478 233.778C478 233.191 478 232.604 478 232Z" fill="#57A8F4"/>
<path d="M178 250C178.291 250 178.582 250 178.882 250C179.174 252.376 179.465 254.752 179.765 257.2C181.198 257.224 182.632 257.242 184.066 257.256C185.264 257.272 185.264 257.272 186.486 257.288C188.603 257.346 188.603 257.346 190.353 256.3C191.226 257.191 192.1 258.082 193 259C188.05 259 183.1 259 178 259C178 256.03 178 253.06 178 250Z" fill="#0C184A"/>
<path d="M375 24.0365C372.941 26.073 371.227 26.6425 368.5 27.6254C367.651 27.9381 366.802 28.2507 365.927 28.5729C363.733 29.1788 363.733 29.1788 362 28.3218C366.129 23.8007 368.963 23.9217 375 24.0365Z" fill="#3D7AA4"/>
<path d="M473 241C477.29 241 481.58 241 486 241C486 241.44 486 241.88 486 242.333C481.71 242.553 477.42 242.773 473 243C473 242.34 473 241.68 473 241Z" fill="#5CABF1"/>
<path d="M312.222 56C312.809 56.2567 313.396 56.5133 314 56.7778C310.002 60.155 305.087 61.7807 299.778 63C299.191 62.7433 298.604 62.4867 298 62.2222C299.467 61.9656 300.933 61.7089 302.444 61.4444C302.444 60.9311 302.444 60.4178 302.444 59.8889C303.076 59.6733 303.707 59.4578 304.358 59.2357C305.583 58.8131 305.583 58.8131 306.833 58.3819C307.648 58.1022 308.463 57.8225 309.302 57.5343C311.266 56.9336 311.266 56.9336 312.222 56Z" fill="#2D608D"/>
<path d="M327 19C327 21.5 327 21.5 327 21.5V19ZM323.444 22.3333C324.031 22.6083 324.618 22.8833 325.222 23.1667C324.929 23.7167 324.636 24.2667 324.333 24.8333C324.298 26.2218 324.294 27.6116 324.333 29C322.573 28.45 320.813 27.9 319 27.3333C319 26.5083 319 25.6833 319 24.8333C321.111 23.375 321.111 23.375 323.444 22.3333Z" fill="#E2E5E8"/>
<path d="M369.091 6C369.391 6.84398 369.691 7.68796 370 8.55752C364.182 11.1806 364.182 11.1806 361.42 10.8486C360.952 10.6552 360.483 10.4618 360 10.2625C360.3 9.41855 360.6 8.57457 360.909 7.70501C362.788 7.08228 362.788 7.08228 365.057 6.69266C365.808 6.55749 366.559 6.42232 367.333 6.28306C367.913 6.18965 368.493 6.09624 369.091 6Z" fill="#3A5280"/>
<path d="M255.4 58C256.456 58.495 257.512 58.99 258.6 59.5C258.6 60.2425 258.6 60.985 258.6 61.75C259.392 61.75 260.184 61.75 261 61.75C260.736 62.4925 260.472 63.235 260.2 64C259.672 64 259.144 64 258.6 64C258.336 62.7625 258.072 61.525 257.8 60.25C256.744 60.4975 255.688 60.745 254.6 61C254.6 61.495 254.6 61.99 254.6 62.5C254.072 62.5 253.544 62.5 253 62.5C253.459 60.3496 253.689 59.6039 255.4 58Z" fill="#BDCFDE"/>
<path d="M287 50C293.976 50.6806 293.976 50.6806 294.972 51.5556C295.009 53.3701 295.01 55.1855 294.972 57C294.388 55.9733 293.803 54.9467 293.201 53.8889C292.616 53.8889 292.031 53.8889 291.429 53.8889C290.1 52.8194 290.1 52.8194 288.772 51.5556C288.187 51.0422 287.602 50.5289 287 50Z" fill="#3B4F64"/>
<path d="M298.2 38C298.794 38.2567 299.388 38.5133 300 38.7778C299.109 39.9328 299.109 39.9328 298.2 41.1111C298.05 43.153 298.05 43.153 298.2 45C297.606 45 297.012 45 296.4 45C295.806 43.9733 295.212 42.9467 294.6 41.8889C293.412 41.8889 292.224 41.8889 291 41.8889C291.297 41.1189 291.594 40.3489 291.9 39.5556C292.605 39.4433 293.311 39.331 294.037 39.2153C296.368 38.8727 296.368 38.8727 298.2 38Z" fill="#C0C8CE"/>
<path d="M560 234.062C562.036 233.979 562.036 233.979 564.286 234.062C564.851 234.495 565.417 234.928 566 235.374C565.679 236.769 565.679 236.769 565.143 238C562.896 237.312 561.891 236.917 560.643 235.292C560.431 234.886 560.219 234.48 560 234.062Z" fill="#65B2F1"/>
<path d="M343.333 110C343.883 110.908 344.433 111.815 345 112.75C342.25 115.473 339.5 118.195 336.667 121C336.117 120.698 335.567 120.395 335 120.083C335.693 119.337 335.693 119.337 336.4 118.576C337.003 117.92 337.607 117.264 338.229 116.589C338.829 115.94 339.428 115.291 340.046 114.623C341.795 112.71 341.795 112.71 343.333 110Z" fill="#88C5F5"/>
<path d="M362 2C365.3 2 368.6 2 372 2C368.927 4.45823 366.419 5.01243 362.833 6C362.558 4.68 362.283 3.36 362 2Z" fill="#D9DEE3"/>
<path d="M590 248.076C585.981 252 585.981 252 584.077 252C584.077 251.353 584.077 250.705 584.077 250.038C582.402 250.038 580.726 250.038 579 250.038C579.279 249.391 579.558 248.743 579.846 248.076C580.649 248.097 581.452 248.117 582.279 248.138C589.683 247.966 589.683 247.966 590 248.076Z" fill="#68B9FA"/>
<path d="M505 168C506.285 168.454 506.285 168.454 507.595 168.917C509.117 174.045 509.117 174.045 508.893 176.25C507.608 177.158 506.323 178.065 505 179C505 175.37 505 171.74 505 168Z" fill="#181E54"/>
<path d="M332 63C332.297 63.6628 332.594 64.3255 332.9 65.0084C334.385 64.677 335.87 64.3456 337.4 64.0042C337.697 64.6669 337.994 65.3297 338.3 66.0126C339.191 66.6753 340.082 67.3381 341 68.0209C336.18 69.3655 336.18 69.3655 333.462 67.7699C332 66.0126 332 66.0126 332 63Z" fill="#406186"/>
<path d="M635 226C636.65 226 638.3 226 640 226C639.67 226.838 639.34 227.675 639 228.538C638.01 228.957 638.01 228.957 637 229.385C636.533 231.183 636.533 231.183 636.375 233.245C636.3 233.944 636.225 234.644 636.148 235.364C636.099 235.904 636.05 236.444 636 237C635.67 237 635.34 237 635 237C635 233.37 635 229.74 635 226Z" fill="#5CA2E0"/>
<path d="M310 68C310.66 68 311.32 68 312 68C311.01 72.1454 310.043 76.1224 308 80C307.67 80 307.34 80 307 80C307.514 75.7407 308.234 72.0369 310 68Z" fill="#72AED3"/>
<path d="M376.939 38C378.879 39.5556 378.879 39.5556 379 42.375C378.96 43.2413 378.92 44.1075 378.879 45C377.599 44.7433 376.319 44.4867 375 44.2222C375.848 38.875 375.848 38.875 376.939 38Z" fill="#6DAED9"/>
<path d="M205 205C205 207.64 205 210.28 205 213C204.736 211.827 204.472 210.653 204.2 209.444C203.144 209.738 202.088 210.031 201 210.333C201.25 208.667 201.25 208.667 201.8 206.778C204.2 205 204.2 205 205 205Z" fill="#252F69"/>
<path d="M269 75.0812C268.187 77.0345 268.187 77.0345 266.474 77.8662C265.766 78.1154 265.058 78.3647 264.328 78.6215C263.279 79.003 263.279 79.003 262.208 79.3921C260.065 79.9638 258.187 80.0684 256 79.9644C259.952 76.7973 264.163 74.5362 269 75.0812Z" fill="#4081A7"/>
<path d="M237.091 68C237.631 68 238.171 68 238.727 68C238.963 68.5231 239.2 69.0461 239.443 69.585C240.312 71.494 240.312 71.494 242 73.0721C241.182 73.9174 241.182 73.9174 239.312 74C238.187 73.9853 238.187 73.9853 237.04 73.9703C236.288 73.9627 235.536 73.955 234.761 73.9472C234.18 73.9374 233.599 73.9276 233 73.9174C233 73.6385 233 73.3595 233 73.0721C234.62 73.0721 236.24 73.0721 237.909 73.0721C237.639 71.3983 237.369 69.7245 237.091 68Z" fill="#87ADCB"/>
<path d="M281.625 46C283.375 46.8333 283.375 46.8333 286 48.5C285.134 49.7375 285.134 49.7375 284.25 51C282.806 50.725 281.362 50.45 279.875 50.1667C279.586 49.0667 279.297 47.9667 279 46.8333C279.866 46.5583 280.732 46.2833 281.625 46Z" fill="#AABFCD"/>
<path d="M264 61C266.31 61 268.62 61 271 61C270.711 61.7425 270.422 62.485 270.125 63.25C268.104 63.4975 266.082 63.745 264 64C264 63.01 264 62.02 264 61Z" fill="#C2D3DA"/>
<path d="M297.969 47C298.974 47.0269 298.974 47.0269 300 47.0543C299.063 49.6346 298.148 51.6857 296.667 54C296.117 51.9944 295.567 49.9888 295 47.9225C295.833 47.0543 295.833 47.0543 297.969 47Z" fill="#6391B6"/>
<path d="M346.286 36C348.201 36.3125 348.201 36.3125 350 36.7143C348.186 37.4503 346.367 38.1779 344.545 38.9018C343.532 39.3078 342.519 39.7139 341.476 40.1323C340.612 40.4186 339.748 40.705 338.857 41C338.244 40.7643 337.631 40.5286 337 40.2857C339.357 38.0696 341.86 37.533 345.357 36.7143C345.664 36.4786 345.97 36.2429 346.286 36Z" fill="#3779A1"/>
<path d="M584 235.07C583.538 235.273 583.076 235.476 582.6 235.686C580.692 236.664 580.692 236.664 579.1 238.459C578.605 238.968 578.11 239.476 577.6 240C577.072 240 576.544 240 576 240C576.25 238.459 576.25 238.459 576.8 236.713C579.548 234.831 580.788 234.923 584 235.07Z" fill="#D7E1F4"/>
<path d="M475.778 232C477.831 232 479.884 232 482 232C480.973 232.242 479.947 232.484 478.889 232.733C478.889 233.216 478.889 233.7 478.889 234.198C479.659 234.44 480.429 234.682 481.222 234.931C478.986 235.023 478.986 235.023 476.556 234.931C476.042 234.448 475.529 233.964 475 233.466C475.257 232.982 475.513 232.498 475.778 232Z" fill="#75AFE7"/>
<path d="M291 121C291.66 121.275 292.32 121.55 293 121.833C293.625 123.969 293.625 123.969 294 126C291.69 126 289.38 126 287 126C288.32 124.35 289.64 122.7 291 121Z" fill="#384471"/>
<path d="M348 105C348.66 106.32 349.32 107.64 350 109C348.71 110.376 347.373 111.708 346 113C345.34 113 344.68 113 344 113C344.599 109.644 345.846 107.622 348 105Z" fill="#59B5F9"/>
<path d="M278 70.7219C276.648 71.4391 275.293 72.1512 273.937 72.861C272.806 73.4566 272.806 73.4566 271.652 74.0642C269.667 75 269.667 75 268 75C268 74.4353 268 73.8706 268 73.2888C268.825 73.2888 269.65 73.2888 270.5 73.2888C270.775 72.4417 271.05 71.5947 271.333 70.7219C276.125 69.7594 276.125 69.7594 278 70.7219Z" fill="#498FB5"/>
<path d="M266.8 57C267.856 57 268.912 57 270 57C270 58.375 270 59.75 270 61.1667C268.68 61.4417 267.36 61.7167 266 62C266.264 60.35 266.528 58.7 266.8 57Z" fill="#4E769D"/>
<path d="M190.667 50C191.767 50.99 192.867 51.98 194 53C193.175 53.99 192.35 54.98 191.5 56C190.675 54.515 189.85 53.03 189 51.5C189.55 51.5 190.1 51.5 190.667 51.5C190.667 51.005 190.667 50.51 190.667 50Z" fill="#49A4EF"/>
<path d="M239.5 45C240.985 46.3444 242.47 47.6887 244 49.0739C241.107 50.3834 238.207 49.9355 235 49.8886C235.575 49.687 236.151 49.4853 236.744 49.2776C238.769 48.4093 238.769 48.4093 239.275 46.5277C239.349 46.0236 239.423 45.5194 239.5 45Z" fill="#89BCD8"/>
<path d="M342.364 39C342.904 39.33 343.444 39.66 344 40C342.264 42.3333 340.714 43.9149 338.273 45C336.432 44.625 336.432 44.625 335 44C340.29 40.0485 340.29 40.0485 342.364 39Z" fill="#2F6791"/>
<path d="M601.889 235C604.236 235 606.582 235 609 235C609 235.33 609 235.66 609 236C607.533 236.33 606.067 236.66 604.556 237C604.556 237.99 604.556 238.98 604.556 240C603.382 239.67 602.209 239.34 601 239C601.293 237.68 601.587 236.36 601.889 235Z" fill="#D6E0F4"/>
<path d="M553.25 183C553.497 183.693 553.745 184.386 554 185.1C552.939 187.034 551.897 188.463 550.25 190C549.507 189.769 548.765 189.538 548 189.3C548.316 188.963 548.632 188.625 548.958 188.277C549.369 187.835 549.78 187.393 550.203 186.937C550.612 186.499 551.021 186.06 551.442 185.609C552.552 184.431 552.552 184.431 553.25 183Z" fill="#2D336D"/>
<path d="M289.4 45C291.45 45.0938 291.45 45.0938 293.4 45.75C293.928 46.4925 294.456 47.235 295 48C292.36 47.7525 289.72 47.505 287 47.25C287.792 46.5075 288.584 45.765 289.4 45Z" fill="#5D768A"/>
<path d="M374 45C375.32 45 376.64 45 378 45C378 45.3265 378 45.653 378 45.9893C375.194 46.7825 373.085 47.0877 370 46.9786C370.264 46.6522 370.528 46.3257 370.8 45.9893C371.856 45.9893 372.912 45.9893 374 45.9893C374 45.6628 374 45.3364 374 45Z" fill="#46739D"/>
<path d="M487 248C486.45 249.32 485.9 250.64 485.333 252C484.783 252 484.233 252 483.667 252C483.667 251.34 483.667 250.68 483.667 250C481.467 250 479.267 250 477 250C477 249.67 477 249.34 477 249C480.404 248.455 483.56 248 487 248Z" fill="#6BB4F5"/>
<path d="M393 148C393 150.625 393 150.625 391.214 152.977C390.625 153.644 390.036 154.312 389.429 155C388.957 154.422 388.486 153.845 388 153.25C389.65 151.517 391.3 149.785 393 148Z" fill="#353A68"/>
<path d="M261.1 81.1556C261.397 82.0942 261.694 83.0329 262 84C259.03 84 256.06 84 253 84C257.05 80.8 257.05 80.8 261.1 81.1556Z" fill="#284D71"/>
<path d="M285.333 56C286.213 56.96 287.093 57.92 288 58.9091C287.12 58.9091 286.24 58.9091 285.333 58.9091C284.747 59.8691 284.16 60.8291 283.556 61.8182C283.556 59.488 284.216 58.1135 285.333 56ZM280.889 61.8182C281.476 61.8182 282.062 61.8182 282.667 61.8182C282.667 62.2982 282.667 62.7782 282.667 63.2727C281.787 63.5127 280.907 63.7527 280 64C280.293 63.28 280.587 62.56 280.889 61.8182Z" fill="#4A7396"/>
<path d="M332.25 45C333.157 45.2357 334.065 45.4714 335 45.7143C334.395 45.7143 333.79 45.7143 333.167 45.7143C332.864 46.4214 332.562 47.1286 332.25 47.8571C330.356 48.5352 330.356 48.5352 328.068 49.0625C327.31 49.242 326.553 49.4216 325.772 49.6066C325.188 49.7364 324.603 49.8662 324 50C325.105 48.2785 325.983 47.9977 328.125 47.0982C330.336 46.2042 330.336 46.2042 332.25 45Z" fill="#2F6893"/>
<path d="M272.76 48C273.872 48.017 273.872 48.017 275.006 48.0343C275.75 48.0431 276.494 48.0519 277.26 48.061C277.834 48.0723 278.408 48.0837 279 48.0953C277.762 50.0477 277.762 50.0477 276.3 52C275.706 52 275.112 52 274.5 52C274.203 51.3557 273.906 50.7115 273.6 50.0477C271.778 49.4111 271.778 49.4111 270 49.0715C270.9 48.0953 270.9 48.0953 272.76 48Z" fill="#2E5786"/>
<path d="M382.222 19C382.809 19 383.396 19 384 19C382.444 23.875 382.444 23.875 380.444 25C380.444 24.34 380.444 23.68 380.444 23C378.978 22.67 377.511 22.34 376 22C377.611 20.9375 377.611 20.9375 379.556 20C380.436 20.33 381.316 20.66 382.222 21C382.222 20.34 382.222 19.68 382.222 19Z" fill="#5B85A8"/>
<path d="M611 243C611.33 243.743 611.66 244.485 612 245.25C612.66 245.25 613.32 245.25 614 245.25C613.67 246.487 613.34 247.725 613 249C611.68 248.752 610.36 248.505 609 248.25C609.66 246.518 610.32 244.785 611 243Z" fill="#57AFFA"/>
<path d="M323.556 58C324.142 58.33 324.729 58.66 325.333 59C325.04 59.33 324.747 59.66 324.444 60C325.618 60.66 326.791 61.32 328 62C324.04 62.495 324.04 62.495 320 63C320 62.01 320 61.02 320 60C321.667 58.9375 321.667 58.9375 323.556 58Z" fill="#3E6E95"/>
<path d="M257 50.0105C256.425 50.1541 255.851 50.2977 255.259 50.4457C253.162 50.974 253.162 50.974 251.429 52C251.429 51.6717 251.429 51.3435 251.429 51.0052C248.977 51.0052 246.526 51.0052 244 51.0052C244 50.8411 244 50.677 244 50.5079C248.423 50.034 252.512 49.969 257 50.0105Z" fill="#6284A7"/>
<path d="M335 44.5307C328.247 47.6035 328.247 47.6035 325 48C330.689 43.5436 330.689 43.5436 335 44.5307Z" fill="#387AA4"/>
<path d="M344.333 34C345.213 34.3143 346.093 34.6286 347 34.9524C344.046 38.7033 344.046 38.7033 341 39C340.34 38.9214 339.68 38.8429 339 38.7619C340.718 36.8337 342.228 35.5038 344.333 34Z" fill="#498EB3"/>
<path d="M376 23C377.65 23.275 379.3 23.55 381 23.8333C381 24.6583 381 25.4833 381 26.3333C380.34 26.8833 379.68 27.4333 379 28C378.67 27.175 378.34 26.35 378 25.5C377.01 25.225 376.02 24.95 375 24.6667C375.33 24.1167 375.66 23.5667 376 23Z" fill="#3E688D"/>
<path d="M575 241C575.558 241 576.117 241 576.692 241C576.692 241.495 576.692 241.99 576.692 242.5C579.764 242.5 582.835 242.5 586 242.5C586 242.748 586 242.995 586 243.25C580.555 243.621 580.555 243.621 575 244C575 243.01 575 242.02 575 241Z" fill="#71ADE6"/>
<path d="M351 102C351.66 102.33 352.32 102.66 353 103C352.34 104.65 351.68 106.3 351 108C350.01 108 349.02 108 348 108C348.573 105.133 348.861 104.139 351 102Z" fill="#42A5F6"/>
<path d="M299.571 44C300.703 44.198 301.834 44.396 303 44.6C302.717 45.194 302.434 45.788 302.143 46.4C300.446 46.598 298.749 46.796 297 47C297.566 46.802 298.131 46.604 298.714 46.4C299.273 45.1852 299.273 45.1852 299.571 44Z" fill="#E1E8F0"/>
<path d="M338.143 19C338.426 19.8486 338.709 20.6971 339 21.5714C337.02 22.7029 335.04 23.8343 333 25C334.266 20.9912 334.266 20.9912 336.536 19.5893C337.066 19.3948 337.596 19.2004 338.143 19Z" fill="#A3AFBE"/>
<path d="M280 54.0751C278.469 56.0376 278.469 56.0376 276.5 58C275.345 58 274.19 58 273 58C273 57.3524 273 56.7048 273 56.0376C275.824 53.926 276.748 53.878 280 54.0751Z" fill="#8AA9BF"/>
<path d="M584 144C586.31 144 588.62 144 591 144C591 144.275 591 144.55 591 144.833C590.332 144.902 589.665 144.971 588.977 145.042C586.167 145.788 585.493 146.68 584 149C584 147.35 584 145.7 584 144Z" fill="#191E4C"/>
<path d="M262 58C263.65 58 265.3 58 267 58C266.67 58.99 266.34 59.98 266 61C263.525 60.2575 263.525 60.2575 261 59.5C261.33 59.005 261.66 58.51 262 58Z" fill="#E0EAEF"/>
</svg>
